<svg width="52" height="62" viewBox="0 0 52 62" fill="none" xmlns="http://www.w3.org/2000/svg">
<g transform="rotate(90, 26 31)">
<circle cx="26" cy="38" r="24" fill="url(#paint0_radial_444_43144)"/>
<path d="M2 2C7.81985 10.2163 12.8188 15.3908 18.917 24M50 2L33.0837 24" stroke="#22C3AC" stroke-width="3" stroke-linecap="round"/>
<path d="M14 17.2108C17.5301 15.1687 21.6286 14 26 14C30.3714 14 34.4699 15.1687 38 17.2108" stroke="#22C3AC" stroke-width="2" stroke-linejoin="round" stroke-dasharray="2 2"/>
<path d="M18.0012 28H34.0012V32.9766H18.0012V28Z" fill="#22C3AC"/>
<path fill-rule="evenodd" clip-rule="evenodd" d="M20.0011 36V38H12.1936C10.9821 38 10.0001 38.9481 10.0001 40.1176L10 45.8824C10 47.0519 10.9821 48 12.1935 48H39.8068C41.0183 48 42.0004 47.0519 42.0004 45.8824L42.0004 40.1176C42.0004 38.9481 41.0184 38 39.8069 38H32.0011V36H20.0011ZM39.0078 43C39.0078 44.1089 38.1089 45.0078 37 45.0078C35.8911 45.0078 34.9922 44.1089 34.9922 43C34.9922 41.8911 35.8911 40.9922 37 40.9922C38.1089 40.9922 39.0078 41.8911 39.0078 43Z" fill="#22C3AC"/>
<defs>
<radialGradient id="paint0_radial_444_43144" cx="0" cy="0" r="1" gradientUnits="userSpaceOnUse" gradientTransform="translate(26 38) rotate(90) scale(24)">
<stop stop-color="white"/>
<stop offset="1" stop-color="white" stop-opacity="0"/>
</radialGradient>
</defs>
</g>
</svg>
