<svg width="24" height="24" viewBox="0 0 24 24" fill="none" xmlns="http://www.w3.org/2000/svg">
<circle cx="12" cy="12" r="12" fill="white"/>
<path d="M10.9136 5.45818C11.2278 5.15273 11.6204 5 12.0654 5C12.5105 5 12.877 5.15273 13.1911 5.45818C13.5052 5.76364 13.6623 6.14545 13.6623 6.57818C13.6623 7.01091 13.5052 7.39273 13.1911 7.69818C12.877 8.00364 12.4843 8.15636 12.0654 8.15636C11.6204 8.15636 11.2278 8.00364 10.9136 7.69818C10.5995 7.39273 10.4424 7.01091 10.4424 6.57818C10.4424 6.14545 10.5733 5.76364 10.9136 5.45818ZM14.4738 19H9.5L9.5 17.5669C9.86649 17.516 10.1283 17.4142 10.2592 17.2869C10.4686 17.1088 10.5733 16.7778 10.5733 16.3197L10.5733 12.2014C10.5733 11.7941 10.4948 11.5141 10.3639 11.3614C10.233 11.2087 9.94503 11.1068 9.52618 11.0305V9.68364H13.5314L13.5314 16.4215C13.5314 16.8542 13.6099 17.1597 13.7408 17.2615C13.8717 17.3888 14.1335 17.4906 14.5 17.5669L14.5 19H14.4738Z" stroke="black"/>
</svg>
