<svg width="24" height="24" viewBox="0 0 24 24" fill="none" xmlns="http://www.w3.org/2000/svg">
<circle cx="12" cy="12" r="12" fill="white"/>
<path d="M7 18L6.53766 17.8096C6.45633 18.0071 6.50946 18.2345 6.66988 18.3755C6.83031 18.5166 7.06261 18.5401 7.24807 18.4341L7 18ZM11.9498 5.97915L12.4121 5.78877L11.9498 4.66595L11.4874 5.78877L11.9498 5.97915ZM16.8995 18L16.6515 18.4341C16.8369 18.5401 17.0692 18.5166 17.2296 18.3755C17.3901 18.2345 17.4432 18.0071 17.3619 17.8096L16.8995 18ZM11.9498 15.1716L12.1978 14.7374L11.9498 14.5957L11.7017 14.7374L11.9498 15.1716ZM11.4498 15.3002C11.4498 15.5763 11.6737 15.8002 11.9498 15.8002C12.226 15.8002 12.4498 15.5763 12.4498 15.3002H11.4498ZM12.4498 13.0502C12.4498 12.774 12.226 12.5502 11.9498 12.5502C11.6737 12.5502 11.4498 12.774 11.4498 13.0502H12.4498ZM7.46234 18.1904L12.4121 6.16952L11.4874 5.78877L6.53766 17.8096L7.46234 18.1904ZM11.4874 6.16952L16.4372 18.1904L17.3619 17.8096L12.4121 5.78877L11.4874 6.16952ZM17.1476 17.5659L12.1978 14.7374L11.7017 15.6057L16.6515 18.4341L17.1476 17.5659ZM11.7017 14.7374L6.75193 17.5659L7.24807 18.4341L12.1978 15.6057L11.7017 14.7374ZM12.4498 15.3002V13.0502H11.4498V15.3002H12.4498Z" fill="black"/>
</svg>
