<svg width="12" height="15" viewBox="0 0 12 15" xmlns="http://www.w3.org/2000/svg">
<path d="M1 14L0.537661 13.8096C0.456332 14.0071 0.509455 14.2345 0.669884 14.3755C0.830312 14.5166 1.06261 14.5401 1.24807 14.4341L1 14ZM5.94976 1.97915L6.4121 1.78877L5.94976 0.665946L5.48742 1.78877L5.94976 1.97915ZM10.8995 14L10.6515 14.4341C10.8369 14.5401 11.0692 14.5166 11.2296 14.3755C11.3901 14.2345 11.4432 14.0071 11.3619 13.8096L10.8995 14ZM5.94976 11.1716L6.19783 10.7374L5.94976 10.5957L5.70169 10.7374L5.94976 11.1716ZM5.44984 11.3002C5.44984 11.5763 5.6737 11.8002 5.94984 11.8002C6.22598 11.8002 6.44984 11.5763 6.44984 11.3002H5.44984ZM6.44984 9.05017C6.44984 8.77403 6.22598 8.55017 5.94984 8.55017C5.6737 8.55017 5.44984 8.77403 5.44984 9.05017H6.44984ZM1.46234 14.1904L6.4121 2.16952L5.48742 1.78877L0.537661 13.8096L1.46234 14.1904ZM5.48742 2.16952L10.4372 14.1904L11.3619 13.8096L6.4121 1.78877L5.48742 2.16952ZM11.1476 13.5659L6.19783 10.7374L5.70169 11.6057L10.6515 14.4341L11.1476 13.5659ZM5.70169 10.7374L0.75193 13.5659L1.24807 14.4341L6.19783 11.6057L5.70169 10.7374ZM6.44984 11.3002V9.05017H5.44984V11.3002H6.44984Z" fill="white"/>
</svg>
