<svg width="8" height="8" viewBox="0 0 8 8" fill="none" xmlns="http://www.w3.org/2000/svg">
<circle cx="4" cy="4" r="4" fill="white"/>
<path d="M2.33331 5.335C2.24218 5.335 2.16831 5.40887 2.16831 5.5C2.16831 5.59113 2.24218 5.665 2.33331 5.665V5.335ZM5.66664 5.665C5.75777 5.665 5.83164 5.59113 5.83164 5.5C5.83164 5.40887 5.75777 5.335 5.66664 5.335V5.665ZM2.33331 6.00167C2.24218 6.00167 2.16831 6.07554 2.16831 6.16667C2.16831 6.25779 2.24218 6.33167 2.33331 6.33167V6.00167ZM5.66664 6.33167C5.75777 6.33167 5.83164 6.25779 5.83164 6.16667C5.83164 6.07554 5.75777 6.00167 5.66664 6.00167V6.33167ZM4.16498 1C4.16498 0.908873 4.0911 0.835 3.99998 0.835C3.90885 0.835 3.83498 0.908873 3.83498 1H4.16498ZM3.83498 1.26902C3.83498 1.36015 3.90885 1.43402 3.99998 1.43402C4.0911 1.43402 4.16498 1.36015 4.16498 1.26902H3.83498ZM4.16498 2.06431C4.16498 1.97318 4.0911 1.89931 3.99998 1.89931C3.90885 1.89931 3.83498 1.97318 3.83498 2.06431H4.16498ZM3.83498 2.33333C3.83498 2.42446 3.90885 2.49833 3.99998 2.49833C4.0911 2.49833 4.16498 2.42446 4.16498 2.33333H3.83498ZM4.66664 1.83167C4.75777 1.83167 4.83164 1.75779 4.83164 1.66667C4.83164 1.57554 4.75777 1.50167 4.66664 1.50167V1.83167ZM4.39761 1.50167C4.30648 1.50167 4.23261 1.57554 4.23261 1.66667C4.23261 1.75779 4.30648 1.83167 4.39761 1.83167V1.50167ZM3.60231 1.83167C3.69344 1.83167 3.76731 1.75779 3.76731 1.66667C3.76731 1.57554 3.69344 1.50167 3.60231 1.50167V1.83167ZM3.33331 1.50167C3.24218 1.50167 3.16831 1.57554 3.16831 1.66667C3.16831 1.75779 3.24218 1.83167 3.33331 1.83167V1.50167ZM3.83498 4.83333C3.83498 4.92446 3.90885 4.99833 3.99998 4.99833C4.0911 4.99833 4.16498 4.92446 4.16498 4.83333H3.83498ZM4.16498 2.85922C4.16498 2.7681 4.0911 2.69422 3.99998 2.69422C3.90885 2.69422 3.83498 2.7681 3.83498 2.85922H4.16498ZM4.67005 4.7353C4.61591 4.8086 4.63144 4.91191 4.70473 4.96605C4.77803 5.0202 4.88135 5.00467 4.93549 4.93137L4.67005 4.7353ZM4.33329 2.335C4.24217 2.335 4.16829 2.40887 4.16829 2.5C4.16829 2.59113 4.24217 2.665 4.33329 2.665V2.335ZM5.9872 2.85775C5.89658 2.84818 5.81535 2.91388 5.80578 3.0045C5.7962 3.09513 5.86191 3.17635 5.95253 3.18592L5.9872 2.85775ZM5.65469 4.70817C5.59569 4.77762 5.60415 4.88175 5.67359 4.94075C5.74304 4.99976 5.84717 4.99129 5.90617 4.92185L5.65469 4.70817ZM3.06447 4.93137C3.11861 5.00467 3.22192 5.0202 3.29522 4.96605C3.36852 4.91191 3.38405 4.8086 3.3299 4.7353L3.06447 4.93137ZM3.66663 2.665C3.75775 2.665 3.83163 2.59113 3.83163 2.5C3.83163 2.40887 3.75775 2.335 3.66663 2.335V2.665ZM2.04742 3.18592C2.13805 3.17635 2.20375 3.09513 2.19418 3.0045C2.1846 2.91388 2.10338 2.84818 2.01275 2.85775L2.04742 3.18592ZM2.09378 4.92185C2.15279 4.99129 2.25691 4.99976 2.32636 4.94075C2.3958 4.88175 2.40427 4.77762 2.34526 4.70817L2.09378 4.92185ZM2.33331 5.665H5.66664V5.335H2.33331V5.665ZM2.33331 6.33167H5.66664V6.00167H2.33331V6.33167ZM3.83498 1V1.26902H4.16498V1H3.83498ZM3.83498 2.06431V2.33333H4.16498V2.06431H3.83498ZM4.66664 1.50167H4.39761V1.83167H4.66664V1.50167ZM3.60231 1.50167H3.33331V1.83167H3.60231V1.50167ZM4.16498 4.83333V2.85922H3.83498V4.83333H4.16498ZM4.80277 2.665C4.90104 2.665 5.05125 2.72366 5.18034 2.848C5.30552 2.96858 5.39476 3.13594 5.39476 3.33333H5.72476C5.72476 3.03072 5.5869 2.78142 5.40928 2.61033C5.23558 2.44301 5.00729 2.335 4.80277 2.335V2.665ZM5.39476 3.33333C5.39476 3.54496 5.3263 3.74591 5.19898 3.9712C5.06973 4.19988 4.88822 4.43994 4.67005 4.7353L4.93549 4.93137C5.14761 4.6442 5.34459 4.38426 5.48627 4.13357C5.62987 3.87949 5.72476 3.6217 5.72476 3.33333H5.39476ZM4.80277 2.335H4.33329V2.665H4.80277V2.335ZM5.95253 3.18592C5.99649 3.19057 6.06721 3.22758 6.12685 3.32038C6.18407 3.40939 6.22207 3.53838 6.2056 3.69431L6.53377 3.72897C6.55789 3.50065 6.50353 3.2961 6.40446 3.14195C6.30781 2.99159 6.15833 2.87583 5.9872 2.85775L5.95253 3.18592ZM6.2056 3.69431C6.17058 4.02577 6.00424 4.29678 5.65469 4.70817L5.90617 4.92185C6.26251 4.50247 6.4876 4.16602 6.53377 3.72897L6.2056 3.69431ZM3.19718 2.335C2.99266 2.335 2.76438 2.44301 2.59067 2.61033C2.41305 2.78142 2.27519 3.03072 2.27519 3.33333H2.60519C2.60519 3.13594 2.69443 2.96858 2.81961 2.848C2.9487 2.72366 3.09891 2.665 3.19718 2.665V2.335ZM2.27519 3.33333C2.27519 3.6217 2.37009 3.87949 2.51368 4.13357C2.65537 4.38426 2.85235 4.6442 3.06447 4.93137L3.3299 4.7353C3.11173 4.43994 2.93022 4.19988 2.80098 3.9712C2.67365 3.74591 2.60519 3.54496 2.60519 3.33333H2.27519ZM3.19718 2.665H3.66663V2.335H3.19718V2.665ZM2.01275 2.85775C1.84162 2.87583 1.69214 2.99159 1.5955 3.14195C1.49642 3.2961 1.44206 3.50065 1.46618 3.72897L1.79435 3.69431C1.77788 3.53838 1.81589 3.40939 1.8731 3.32038C1.93274 3.22758 2.00347 3.19057 2.04742 3.18592L2.01275 2.85775ZM1.46618 3.72897C1.51235 4.16602 1.73745 4.50247 2.09378 4.92185L2.34526 4.70817C1.99571 4.29678 1.82937 4.02577 1.79435 3.69431L1.46618 3.72897Z" fill="black"/>
</svg>
