<svg width="24" height="24" viewBox="0 0 24 24" fill="none" xmlns="http://www.w3.org/2000/svg">
<path d="M8.66662 14.75C8.52855 14.75 8.41662 14.8619 8.41662 15C8.41662 15.1381 8.52855 15.25 8.66662 15.25V14.75ZM15.3333 15.25C15.4714 15.25 15.5833 15.1381 15.5833 15C15.5833 14.8619 15.4714 14.75 15.3333 14.75V15.25ZM8.66662 16.0833C8.52855 16.0833 8.41662 16.1953 8.41662 16.3333C8.41662 16.4714 8.52855 16.5833 8.66662 16.5833V16.0833ZM15.3333 16.5833C15.4714 16.5833 15.5833 16.4714 15.5833 16.3333C15.5833 16.1953 15.4714 16.0833 15.3333 16.0833V16.5833ZM12.25 6C12.25 5.86193 12.138 5.75 12 5.75C11.8619 5.75 11.75 5.86193 11.75 6H12.25ZM11.75 6.53805C11.75 6.67612 11.8619 6.78805 12 6.78805C12.138 6.78805 12.25 6.67612 12.25 6.53805H11.75ZM12.25 8.12862C12.25 7.99055 12.138 7.87862 12 7.87862C11.8619 7.87862 11.75 7.99055 11.75 8.12862H12.25ZM11.75 8.66667C11.75 8.80474 11.8619 8.91667 12 8.91667C12.138 8.91667 12.25 8.80474 12.25 8.66667H11.75ZM13.3333 7.58333C13.4714 7.58333 13.5833 7.4714 13.5833 7.33333C13.5833 7.19526 13.4714 7.08333 13.3333 7.08333V7.58333ZM12.7952 7.08333C12.6571 7.08333 12.5452 7.19526 12.5452 7.33333C12.5452 7.4714 12.6571 7.58333 12.7952 7.58333V7.08333ZM11.2046 7.58333C11.3427 7.58333 11.4546 7.4714 11.4546 7.33333C11.4546 7.19526 11.3427 7.08333 11.2046 7.08333V7.58333ZM10.6666 7.08333C10.5285 7.08333 10.4166 7.19526 10.4166 7.33333C10.4166 7.4714 10.5285 7.58333 10.6666 7.58333V7.08333ZM11.75 13.6667C11.75 13.8047 11.8619 13.9167 12 13.9167C12.138 13.9167 12.25 13.8047 12.25 13.6667H11.75ZM12.25 9.71845C12.25 9.58038 12.138 9.46845 12 9.46845C11.8619 9.46845 11.75 9.58038 11.75 9.71845H12.25ZM13.4044 13.5181C13.3224 13.6292 13.3459 13.7857 13.457 13.8678C13.5681 13.9498 13.7246 13.9263 13.8066 13.8152L13.4044 13.5181ZM12.6666 8.75C12.5285 8.75 12.4166 8.86193 12.4166 9C12.4166 9.13807 12.5285 9.25 12.6666 9.25V8.75ZM15.966 9.79506C15.8287 9.78055 15.7056 9.8801 15.6911 10.0174C15.6766 10.1547 15.7762 10.2778 15.9135 10.2923L15.966 9.79506ZM15.3703 13.4681C15.2809 13.5734 15.2938 13.7311 15.399 13.8205C15.5042 13.9099 15.662 13.8971 15.7514 13.7919L15.3703 13.4681ZM10.1933 13.8152C10.2753 13.9263 10.4318 13.9498 10.5429 13.8678C10.654 13.7857 10.6775 13.6292 10.5955 13.5181L10.1933 13.8152ZM11.3333 9.25C11.4713 9.25 11.5833 9.13807 11.5833 9C11.5833 8.86193 11.4713 8.75 11.3333 8.75V9.25ZM8.08644 10.2923C8.22375 10.2778 8.3233 10.1547 8.30879 10.0174C8.29429 9.8801 8.17122 9.78055 8.03391 9.79506L8.08644 10.2923ZM8.24853 13.7919C8.33793 13.8971 8.4957 13.9099 8.60092 13.8205C8.70614 13.7311 8.71896 13.5734 8.62956 13.4681L8.24853 13.7919ZM8.66662 15.25H15.3333V14.75H8.66662V15.25ZM8.66662 16.5833H15.3333V16.0833H8.66662V16.5833ZM11.75 6V6.53805H12.25V6H11.75ZM11.75 8.12862V8.66667H12.25V8.12862H11.75ZM13.3333 7.08333H12.7952V7.58333H13.3333V7.08333ZM11.2046 7.08333H10.6666V7.58333H11.2046V7.08333ZM12.25 13.6667V9.71845H11.75V13.6667H12.25ZM13.6055 9.25C13.8278 9.25 14.1472 9.37928 14.4162 9.63839C14.6793 9.89178 14.8695 10.2464 14.8695 10.6667H15.3695C15.3695 10.087 15.1056 9.60822 14.7631 9.27828C14.4265 8.95406 13.9888 8.75 13.6055 8.75V9.25ZM14.8695 10.6667C14.8695 11.1085 14.7262 11.5242 14.4676 11.9818C14.2061 12.4445 13.8393 12.9294 13.4044 13.5181L13.8066 13.8152C14.2323 13.2389 14.6225 12.7238 14.9029 12.2278C15.1861 11.7266 15.3695 11.2248 15.3695 10.6667H14.8695ZM13.6055 8.75H12.6666V9.25H13.6055V8.75ZM15.9135 10.2923C16.0322 10.3048 16.1927 10.398 16.321 10.5975C16.4456 10.7913 16.5256 11.0676 16.4908 11.397L16.988 11.4495C17.0344 11.0104 16.9296 10.6197 16.7416 10.3272C16.5573 10.0404 16.2774 9.82796 15.966 9.79506L15.9135 10.2923ZM16.4908 11.397C16.418 12.0855 16.0711 12.6434 15.3703 13.4681L15.7514 13.7919C16.4624 12.9551 16.8984 12.298 16.988 11.4495L16.4908 11.397ZM10.3944 8.75C10.0111 8.75 9.57344 8.95406 9.23684 9.27828C8.89432 9.60822 8.63039 10.087 8.63039 10.6667H9.13039C9.13039 10.2464 9.32065 9.89178 9.58372 9.63839C9.85272 9.37928 10.1721 9.25 10.3944 9.25V8.75ZM8.63039 10.6667C8.63039 11.2248 8.81377 11.7266 9.09702 12.2278C9.37736 12.7238 9.76758 13.2389 10.1933 13.8152L10.5955 13.5181C10.1606 12.9294 9.79381 12.4445 9.53231 11.9818C9.27371 11.5242 9.13039 11.1085 9.13039 10.6667H8.63039ZM10.3944 9.25H11.3333V8.75H10.3944V9.25ZM8.03391 9.79506C7.72248 9.82796 7.44261 10.0404 7.25829 10.3272C7.07029 10.6197 6.96553 11.0104 7.01192 11.4495L7.50915 11.397C7.47435 11.0676 7.55433 10.7913 7.6789 10.5975C7.80716 10.398 7.9677 10.3048 8.08644 10.2923L8.03391 9.79506ZM7.01192 11.4495C7.10155 12.298 7.5375 12.9551 8.24853 13.7919L8.62956 13.4681C7.92881 12.6434 7.58189 12.0855 7.50915 11.397L7.01192 11.4495Z" fill="black"/>
<path d="M12 3.60001C12.9941 3.60001 13.8 2.79412 13.8 1.8C13.8 0.80589 12.9941 0 12 0C11.0058 0 10.2 0.80589 10.2 1.8C10.2 2.79412 11.0058 3.60001 12 3.60001Z" fill="black"/>
<path d="M12 24.0001C12.9941 24.0001 13.8 23.1942 13.8 22.2001C13.8 21.2059 12.9941 20.4001 12 20.4001C11.0058 20.4001 10.2 21.2059 10.2 22.2001C10.2 23.1942 11.0058 24.0001 12 24.0001Z" fill="black"/>
<path d="M22.2 13.8C23.1941 13.8 24 12.9941 24 12C24 11.0059 23.1941 10.2 22.2 10.2C21.2059 10.2 20.4 11.0059 20.4 12C20.4 12.9941 21.2059 13.8 22.2 13.8Z" fill="black"/>
<path d="M1.80001 13.8C2.79412 13.8 3.60001 12.9941 3.60001 12C3.60001 11.0059 2.79412 10.2 1.80001 10.2C0.80589 10.2 0 11.0059 0 12C0 12.9941 0.80589 13.8 1.80001 13.8Z" fill="black"/>
<path d="M19.2 6.60002C20.1941 6.60002 21 5.79413 21 4.80002C21 3.8059 20.1941 3.00002 19.2 3.00002C18.2059 3.00002 17.4 3.8059 17.4 4.80002C17.4 5.79413 18.2059 6.60002 19.2 6.60002Z" fill="black"/>
<path d="M4.8 21.0001C5.79412 21.0001 6.60001 20.1942 6.60001 19.2001C6.60001 18.2059 5.79412 17.4001 4.8 17.4001C3.80589 17.4001 3 18.2059 3 19.2001C3 20.1942 3.80589 21.0001 4.8 21.0001Z" fill="black"/>
<path d="M19.2 21.0001C20.1941 21.0001 21 20.1942 21 19.2001C21 18.2059 20.1941 17.4001 19.2 17.4001C18.2059 17.4001 17.4 18.2059 17.4 19.2001C17.4 20.1942 18.2059 21.0001 19.2 21.0001Z" fill="black"/>
<path d="M4.8 6.60002C5.79412 6.60002 6.60001 5.79413 6.60001 4.80002C6.60001 3.8059 5.79412 3.00002 4.8 3.00002C3.80589 3.00002 3 3.8059 3 4.80002C3 5.79413 3.80589 6.60002 4.8 6.60002Z" fill="black"/>
</svg>
