<svg width="24" height="24" viewBox="0 0 24 24" fill="none" xmlns="http://www.w3.org/2000/svg">
<circle cx="12" cy="12" r="12" fill="white"/>
<path d="M7.00005 16.25C6.86198 16.25 6.75005 16.3619 6.75005 16.5C6.75005 16.6381 6.86198 16.75 7.00005 16.75V16.25ZM17 16.75C17.1381 16.75 17.25 16.6381 17.25 16.5C17.25 16.3619 17.1381 16.25 17 16.25V16.75ZM7.00005 18.25C6.86198 18.25 6.75005 18.3619 6.75005 18.5C6.75005 18.6381 6.86198 18.75 7.00005 18.75V18.25ZM17 18.75C17.1381 18.75 17.25 18.6381 17.25 18.5C17.25 18.3619 17.1381 18.25 17 18.25V18.75ZM12.2501 3C12.2501 2.86193 12.1381 2.75 12.0001 2.75C11.862 2.75 11.7501 2.86193 11.7501 3H12.2501ZM11.7501 3.80707C11.7501 3.94514 11.862 4.05707 12.0001 4.05707C12.1381 4.05707 12.2501 3.94514 12.2501 3.80707H11.7501ZM12.2501 6.19293C12.2501 6.05486 12.1381 5.94293 12.0001 5.94293C11.862 5.94293 11.7501 6.05486 11.7501 6.19293H12.2501ZM11.7501 7C11.7501 7.13807 11.862 7.25 12.0001 7.25C12.1381 7.25 12.2501 7.13807 12.2501 7H11.7501ZM14 5.25C14.1381 5.25 14.25 5.13807 14.25 5C14.25 4.86193 14.1381 4.75 14 4.75V5.25ZM13.1929 4.75C13.0549 4.75 12.9429 4.86193 12.9429 5C12.9429 5.13807 13.0549 5.25 13.1929 5.25V4.75ZM10.8071 5.25C10.9451 5.25 11.0571 5.13807 11.0571 5C11.0571 4.86193 10.9451 4.75 10.8071 4.75V5.25ZM10.0001 4.75C9.86198 4.75 9.75005 4.86193 9.75005 5C9.75005 5.13807 9.86198 5.25 10.0001 5.25V4.75ZM11.7501 14.5C11.7501 14.6381 11.862 14.75 12.0001 14.75C12.1381 14.75 12.2501 14.6381 12.2501 14.5H11.7501ZM12.2501 8.57767C12.2501 8.4396 12.1381 8.32767 12.0001 8.32767C11.862 8.32767 11.7501 8.4396 11.7501 8.57767H12.2501ZM14.2073 14.3515C14.1253 14.4625 14.1488 14.6191 14.2599 14.7011C14.3709 14.7831 14.5275 14.7596 14.6095 14.6485L14.2073 14.3515ZM13 7.25C12.8619 7.25 12.75 7.36193 12.75 7.5C12.75 7.63807 12.8619 7.75 13 7.75V7.25ZM17.936 8.81689C17.7987 8.80239 17.6756 8.90194 17.6611 9.03925C17.6466 9.17655 17.7461 9.29962 17.8834 9.31413L17.936 8.81689ZM17.1509 14.2832C17.0615 14.3884 17.0743 14.5461 17.1795 14.6355C17.2848 14.7249 17.4425 14.7121 17.5319 14.6069L17.1509 14.2832ZM9.39058 14.6485C9.47262 14.7596 9.62915 14.7831 9.74021 14.7011C9.85127 14.6191 9.8748 14.4625 9.79276 14.3515L9.39058 14.6485ZM11 7.75C11.1381 7.75 11.25 7.63807 11.25 7.5C11.25 7.36193 11.1381 7.25 11 7.25V7.75ZM6.11665 9.31413C6.25396 9.29962 6.35351 9.17655 6.339 9.03925C6.3245 8.90194 6.20143 8.80239 6.06412 8.81689L6.11665 9.31413ZM6.46817 14.6069C6.55757 14.7121 6.71534 14.725 6.82056 14.6355C6.92578 14.5461 6.9386 14.3884 6.8492 14.2832L6.46817 14.6069ZM7.00005 16.75H17V16.25H7.00005V16.75ZM7.00005 18.75H17V18.25H7.00005V18.75ZM11.7501 3V3.80707H12.2501V3H11.7501ZM11.7501 6.19293V7H12.2501V6.19293H11.7501ZM14 4.75H13.1929V5.25H14V4.75ZM10.8071 4.75H10.0001V5.25H10.8071V4.75ZM12.2501 14.5V8.57767H11.7501V14.5H12.2501ZM14.4084 7.75C14.7821 7.75 15.2907 7.96261 15.7111 8.36755C16.1256 8.76678 16.4294 9.32971 16.4294 10H16.9294C16.9294 9.17029 16.5519 8.48322 16.058 8.00745C15.57 7.53739 14.9431 7.25 14.4084 7.25V7.75ZM16.4294 10C16.4294 10.6919 16.2044 11.3369 15.8103 12.0341C15.4134 12.7365 14.8574 13.4715 14.2073 14.3515L14.6095 14.6485C15.2504 13.781 15.8298 13.0159 16.2456 12.2802C16.6643 11.5393 16.9294 10.8081 16.9294 10H16.4294ZM14.4084 7.25H13V7.75H14.4084V7.25ZM17.8834 9.31413C18.1097 9.33803 18.3804 9.50754 18.5868 9.82867C18.7895 10.1441 18.9157 10.5871 18.8606 11.1087L19.3578 11.1612C19.4245 10.53 19.2735 9.9724 19.0074 9.55832C18.7449 9.14998 18.3549 8.86116 17.936 8.81689L17.8834 9.31413ZM18.8606 11.1087C18.7472 12.1814 18.2046 13.043 17.1509 14.2832L17.5319 14.6069C18.5959 13.3547 19.2276 12.3939 19.3578 11.1612L18.8606 11.1087ZM9.59167 7.25C9.05698 7.25 8.4301 7.53739 7.94211 8.00745C7.44818 8.48322 7.0707 9.17029 7.0707 10H7.5707C7.5707 9.32971 7.87452 8.76678 8.28898 8.36755C8.70938 7.96261 9.21798 7.75 9.59167 7.75V7.25ZM7.0707 10C7.0707 10.8081 7.33576 11.5393 7.75447 12.2802C8.17028 13.0159 8.74974 13.781 9.39058 14.6485L9.79276 14.3515C9.14274 13.4715 8.58672 12.7365 8.18976 12.0341C7.7957 11.3369 7.5707 10.6919 7.5707 10H7.0707ZM9.59167 7.75H11V7.25H9.59167V7.75ZM6.06412 8.81689C5.64515 8.86116 5.25517 9.14998 4.99271 9.55832C4.72656 9.97241 4.57562 10.53 4.6423 11.1612L5.13954 11.1087C5.08444 10.5871 5.21061 10.1441 5.41332 9.82867C5.61972 9.50754 5.89036 9.33803 6.11665 9.31413L6.06412 8.81689ZM4.6423 11.1612C4.77253 12.3939 5.4042 13.3547 6.46817 14.6069L6.8492 14.2832C5.79551 13.043 5.25287 12.1814 5.13954 11.1087L4.6423 11.1612Z" fill="black"/>
</svg>
