<?xml version="1.0" encoding="utf-8"?>
<!-- Generator: Adobe Illustrator 22.0.1, SVG Export Plug-In . SVG Version: 6.00 Build 0)  -->
<svg version="1.1" id="Layer_1" xmlns="http://www.w3.org/2000/svg" xmlns:xlink="http://www.w3.org/1999/xlink" x="0px" y="0px"
	 viewBox="0 0 427 105" style="enable-background:new 0 0 427 105;" xml:space="preserve">
<style type="text/css">
	.st0{fill:#14143C;}
	.st1{fill:#969696;}
</style>
<g>
	<g>
		<path class="st1" d="M79.5,98.7l5.5-7c2.2,1.8,6.3,4.4,10.4,4.4c4.1,0,5.5-1.1,5.5-3c0-5.9-21.1-0.4-21.1-13.3
			C79.9,73.2,86.1,68,95,68c6.3,0,10.7,2.6,13.3,4.8l-5.5,6.7c-1.5-1.5-5.2-3.3-8.5-3.3c-3.7,0-5.2,1.1-5.2,2.6
			c0,4.8,21.1,0,21.1,13.7c0,6.7-5.9,12.6-15.9,12.6C88.7,104.3,83.2,102.4,79.5,98.7z"/>
		<polygon class="st1" points="161.9,68.8 154.5,82.4 147.5,68.8 111.3,68.8 111.3,76.9 121.6,76.9 121.6,103.9 131.3,103.9 
			131.3,76.9 142,76.9 149.7,91.3 149.7,103.9 159.3,103.9 159.3,91.3 171.5,68.8 		"/>
		<path class="st1" d="M174.9,68.8h17c8.9,0,13.7,4.8,13.7,11.8c0,4.4-2.6,8.1-6.7,10.4l7.4,12.9H196L190,92.8h-5.2v11.1h-9.6V68.8
			H174.9z M184.5,76.9v7.8h7c2.6,0,4.1-1.8,4.1-4.1c0-1.8-1.1-3.7-4.1-3.7H184.5z"/>
		<path class="st1" d="M211.8,68.8h26.3v8.5h-16.6v4.8h13.7v8.1h-13.7v5.5h17.4v8.1h-27V68.8z"/>
		<path class="st1" d="M270.6,103.9h-25.5V68.8h9.6v27h15.9L270.6,103.9L270.6,103.9z"/>
		<path class="st1" d="M274.3,98.7l5.5-7c2.2,1.8,6.3,4.4,10.4,4.4c4.1,0,5.5-1.1,5.5-3c0-5.9-21.1-0.4-21.1-13.3
			c0-6.7,6.3-11.8,15.2-11.8c6.3,0,10.7,2.6,13.3,4.8l-5.5,6.7c-1.5-1.5-5.2-3.3-8.5-3.3c-3.7,0-5.2,1.1-5.2,2.6
			c0,4.8,21.1,0,21.1,13.7c0,6.7-5.9,12.6-15.9,12.6C283.6,104.3,278,102.4,274.3,98.7z"/>
		<path class="st1" d="M311.7,68.8h26.3v8.5h-16.6v4.8H335v8.1h-13.7v5.5h17.4v8.1h-27V68.8z"/>
		<path class="st1" d="M344.6,68.8h8.9l11.8,18.9V68.8h9.2v35.1h-8.9L353.8,85v18.9h-9.2V68.8z"/>
	</g>
	<g>
		<g>
			<path class="st0" d="M112,24.8L99.8,59.9h-9.2L78.8,24.8h9.6l7,22.2l6.7-22.2H112z"/>
			<path class="st0" d="M116.5,45.8V24.8h9.6v21.8c0,3.3,2.2,5.5,5.5,5.5s5.5-2.2,5.5-5.5V24.8h9.6v21.1c0,9.6-5.9,14.8-15.2,14.8
				C122.7,60.6,116.5,55.5,116.5,45.8z"/>
			<path class="st0" d="M154.2,24.8h17c8.9,0,13.7,4.8,13.7,11.8c0,4.4-2.6,8.1-6.7,10.4l7.4,12.9h-10.4l-5.9-11.1h-5.2v11.1h-9.6
				V24.8H154.2z M163.8,32.9v7.8h7c2.6,0,4.1-1.8,4.1-4.1c0-1.8-1.1-3.7-4.1-3.7H163.8z"/>
			<path class="st0" d="M206.3,24.8c7.8,0,18.1,3.7,18.1,17.7c0,13.7-10.4,17.4-18.1,17.4h-14.8V24.8H206.3z M201.1,32.9v18.9h5.5
				c2.6,0,8.1-1.8,8.1-9.2s-5.5-9.6-8.1-9.6H201.1z"/>
			<path class="st0" d="M230.7,24.8H257v8.5h-16.6v4.8H254v8.1h-13.7v5.5h17.4v8.1h-27V24.8z"/>
			<path class="st0" d="M264,24.8h17c8.9,0,13.7,4.8,13.7,11.8c0,4.4-2.6,8.1-6.7,10.4l7.4,12.9h-10.4l-5.9-11.1H274v11.1h-9.6V24.8
				H264z M273.6,32.9v7.8h7c2.6,0,4.1-1.8,4.1-4.1c0-1.8-1.1-3.7-4.1-3.7H273.6z"/>
			<path class="st0" d="M310.9,24.8v35.1h-9.6V24.8H310.9z"/>
			<path class="st0" d="M318.7,24.8h8.9l11.8,18.9V24.8h9.2v35.1h-8.9L327.9,41v18.9h-9.2V24.8z"/>
			<path class="st0" d="M373.8,40.3h18.9c0,0.7,0,1.5,0,2.2c0,11.5-8.9,18.1-19.2,18.1c-10.4,0-19.2-6.7-19.2-18.1
				c0-12.2,9.6-18.1,19.2-18.1c6.3,0,12.6,2.6,15.9,8.1l-8.1,4.4c-1.8-2.6-4.4-4.1-7.8-4.1c-5.2,0-9.6,3.3-9.6,9.6
				c0,5.9,4.8,10,9.6,10c4.1,0,7-1.5,8.9-4.4h-8.5V40.3z"/>
			<path class="st0" d="M396.3,55.1l5.5-7c2.2,1.8,6.3,4.4,10.4,4.4s5.5-1.1,5.5-3c0-5.9-21.1-0.4-21.1-13.3
				c0-6.7,6.3-11.8,15.2-11.8c6.3,0,10.7,2.6,13.3,4.8l-5.5,6.7c-1.5-1.5-5.2-3.3-8.5-3.3c-3.7,0-5.2,1.1-5.2,2.6
				c0,4.8,21.1,0,21.1,13.7c0,6.7-5.9,12.6-15.9,12.6C405.6,60.6,400,58.4,396.3,55.1z"/>
		</g>
	</g>
	<g>
		<path class="st0" d="M11.1,47.3L11.1,47.3c0-1.5,0.4-4.4-0.4-5.9c-1.1-1.8-3-3.7-5.2-5.5C4.8,35.1,3,33.6,3,31.4
			c0-3.3,2.2-4.1,4.1-4.1c0.7,0,1.1,0,1.8,0.4c0.4-1.1,0.7-2.2,1.5-3c-1.1-0.4-1.8-0.4-3-0.4c-3,0-7.4,2.2-7.4,7.4
			c0,3.3,2.2,5.5,4.1,7.4c2.2,2.2,4.1,4.4,4.4,8.9h2.6V47.3z"/>
		<rect x="7.8" y="51" class="st0" width="45.1" height="3"/>
		<rect x="7.8" y="57.3" class="st0" width="45.1" height="3"/>
		<path class="st0" d="M54.3,24c-1.1,0-1.8,0-3,0.4c0.7,0.7,1.1,1.8,1.5,3c0.4,0,1.1-0.4,1.8-0.4c1.5,0,4.1,0.7,4.1,4.1
			c0,2.2-1.8,3.7-2.6,4.4C54,37.3,52.1,39.2,51,41c-0.7,1.5-0.7,4.4-0.4,5.9H54c0.4-4.4,2.2-6.7,4.4-8.9c1.8-1.8,4.1-4.1,4.1-7.4
			C61.7,26.3,57.3,24,54.3,24z"/>
		<path class="st0" d="M31.8,47.3L31.8,47.3L31.8,47.3c0.4-2.6,1.5-3.7,1.5-5.9c0-1.8-1.1-3.3-1.1-9.6l0,0v-9.2h-3.3v9.2l0,0
			c0,5.9-1.1,7.4-1.1,9.6c0,2.6,0.7,3.3,1.5,5.9l0,0l0,0H31.8z"/>
		<path class="st0" d="M17.7,47.3h3.7c0.4-2.6,1.1-4.8,0.4-6.7c-0.7-2.2-3.3-4.4-5.2-6.3c-1.5-1.5-2.2-3-2.2-4.8
			c0-2.2,1.8-4.1,4.1-4.1c3,0,3.7,2.6,7.4,2.6v-3.3c-2.2-0.4-3.3-2.6-7.4-2.6c-2.2,0-4.1,0.7-5.5,2.2c-1.5,1.5-1.8,3.3-1.8,5.2
			c0,3,1.5,4.8,3,6.7C15.9,38.5,18.1,41.4,17.7,47.3z"/>
		<path class="st0" d="M35.1,28.1c3.3,0,4.4-2.6,7.4-2.6c2.6,0,4.1,1.8,4.1,4.1c0,1.8-0.7,3.3-2.2,4.8c-1.8,1.8-4.4,4.1-5.2,6.3
			c-0.7,1.8,0,4.1,0.4,6.7h3.3c0-6.3,1.8-8.9,3.7-11.1c1.5-1.8,3-3.7,3-6.7c0-1.8-0.7-3.7-1.8-5.2c-1.5-1.5-3.3-2.2-5.5-2.2
			c-4.1,0-5.2,2.6-7.4,2.6v3.3H35.1z"/>
		<path class="st0" d="M25.1,14c0,3,2.2,5.2,5.2,5.2s5.2-2.2,5.2-5.2c0-2.2-1.5-4.4-3.7-4.8v-3h3.3v-3h-3.3V0h-3v3.3h-3.3v3h3.3v3
			C27,9.6,25.1,11.5,25.1,14z M30.7,11.5c1.5,0,2.6,1.1,2.6,2.6s-1.1,2.6-2.6,2.6c-1.5,0-2.6-1.1-2.6-2.6S29.2,11.5,30.7,11.5z"/>
	</g>
</g>
</svg>
