<?xml version="1.0" encoding="UTF-8" standalone="no"?>
<!-- Created with Inkscape (http://www.inkscape.org/) -->

<svg
   width="210mm"
   height="297mm"
   viewBox="0 0 210 297"
   version="1.1"
   id="svg5"
   inkscape:version="1.2.1 (9c6d41e, 2022-07-14)"
   sodipodi:docname="javascript-level.svg"
   xml:space="preserve"
   xmlns:inkscape="http://www.inkscape.org/namespaces/inkscape"
   xmlns:sodipodi="http://sodipodi.sourceforge.net/DTD/sodipodi-0.dtd"
   xmlns="http://www.w3.org/2000/svg"
   xmlns:svg="http://www.w3.org/2000/svg"><sodipodi:namedview
     id="namedview7"
     pagecolor="#ffffff"
     bordercolor="#000000"
     borderopacity="0.25"
     inkscape:showpageshadow="2"
     inkscape:pageopacity="0.0"
     inkscape:pagecheckerboard="0"
     inkscape:deskcolor="#d1d1d1"
     inkscape:document-units="mm"
     showgrid="false"
     inkscape:zoom="0.56751512"
     inkscape:cx="503.0703"
     inkscape:cy="434.34966"
     inkscape:window-width="1728"
     inkscape:window-height="1051"
     inkscape:window-x="410"
     inkscape:window-y="1478"
     inkscape:window-maximized="0"
     inkscape:current-layer="layer1" /><defs
     id="defs2"><rect
       x="61.672366"
       y="167.39642"
       width="206.16191"
       height="89.865447"
       id="rect70010" /><marker
       style="overflow:visible"
       id="Arrow1"
       refX="0"
       refY="0"
       orient="auto-start-reverse"
       inkscape:stockid="Arrow1"
       markerWidth="4.0606604"
       markerHeight="6.7071066"
       viewBox="0 0 4.0606602 6.7071068"
       inkscape:isstock="true"
       inkscape:collect="always"
       preserveAspectRatio="xMidYMid"><path
         style="fill:none;stroke:context-stroke;stroke-width:1;stroke-linecap:butt"
         d="M 3,-3 0,0 3,3"
         id="path5057"
         transform="rotate(180,0.125,0)"
         sodipodi:nodetypes="ccc" /></marker><rect
       x="303.27621"
       y="619.54993"
       width="332.65253"
       height="43.65139"
       id="rect2040" /><rect
       x="303.27621"
       y="619.54993"
       width="199.29579"
       height="53.073334"
       id="rect2040-5" /><rect
       x="303.27621"
       y="619.54993"
       width="199.29579"
       height="53.073334"
       id="rect10968" /><rect
       x="303.27621"
       y="619.54993"
       width="78.260048"
       height="61.770512"
       id="rect10968-4" /><rect
       x="303.27621"
       y="619.54993"
       width="87.681992"
       height="61.04575"
       id="rect10968-4-2" /><rect
       x="303.27621"
       y="619.54993"
       width="77.535286"
       height="61.04575"
       id="rect10968-4-2-8" /><rect
       x="303.27621"
       y="619.54993"
       width="105.80112"
       height="60.320984"
       id="rect10968-4-2-8-9" /><rect
       x="303.27621"
       y="619.54993"
       width="87.681992"
       height="61.04575"
       id="rect10968-4-2-4" /><rect
       x="303.27621"
       y="619.54993"
       width="199.29579"
       height="53.073334"
       id="rect2040-0" /><marker
       style="overflow:visible"
       id="Arrow1-8"
       refX="0"
       refY="0"
       orient="auto-start-reverse"
       inkscape:stockid="Arrow1"
       markerWidth="4.0606604"
       markerHeight="6.7071066"
       viewBox="0 0 4.0606602 6.7071068"
       inkscape:isstock="true"
       inkscape:collect="always"
       preserveAspectRatio="xMidYMid"><path
         style="fill:none;stroke:context-stroke;stroke-width:1;stroke-linecap:butt"
         d="M 3,-3 0,0 3,3"
         id="path5057-3"
         transform="rotate(180,0.125,0)"
         sodipodi:nodetypes="ccc" /></marker><marker
       style="overflow:visible"
       id="Arrow1-2"
       refX="0"
       refY="0"
       orient="auto-start-reverse"
       inkscape:stockid="Arrow1"
       markerWidth="4.0606604"
       markerHeight="6.7071066"
       viewBox="0 0 4.0606602 6.7071068"
       inkscape:isstock="true"
       inkscape:collect="always"
       preserveAspectRatio="xMidYMid"><path
         style="fill:none;stroke:context-stroke;stroke-width:1;stroke-linecap:butt"
         d="M 3,-3 0,0 3,3"
         id="path5057-30"
         transform="rotate(180,0.125,0)"
         sodipodi:nodetypes="ccc" /></marker><marker
       style="overflow:visible"
       id="Arrow1-8-2"
       refX="0"
       refY="0"
       orient="auto-start-reverse"
       inkscape:stockid="Arrow1"
       markerWidth="4.0606604"
       markerHeight="6.7071066"
       viewBox="0 0 4.0606602 6.7071068"
       inkscape:isstock="true"
       inkscape:collect="always"
       preserveAspectRatio="xMidYMid"><path
         style="fill:none;stroke:context-stroke;stroke-width:1;stroke-linecap:butt"
         d="M 3,-3 0,0 3,3"
         id="path5057-3-5"
         transform="rotate(180,0.125,0)"
         sodipodi:nodetypes="ccc" /></marker><rect
       x="61.672367"
       y="167.39642"
       width="354.17559"
       height="98.675786"
       id="rect70010-6" /></defs><g
     inkscape:label="Layer 1"
     inkscape:groupmode="layer"
     id="layer1"><path
       d="m 91.670911,257.75955 q -1.549299,0 -2.562314,-0.98415 -1.012932,-0.9841 -1.012932,-2.48915 0,-1.50506 1.012932,-2.48918 1.013015,-0.98403 2.562314,-0.98403 h 97.724959 q 1.54932,0 2.56233,0.98403 1.01297,0.98412 1.01297,2.48918 0,1.50505 -1.01297,2.48915 -1.01301,0.98415 -2.56233,0.98415 z m 8.342369,-13.89301 q -2.860242,0 -5.005381,-2.08398 -2.145227,-2.08395 -2.145227,-4.8625 v -55.57198 q 0,-2.77863 2.145227,-4.86259 2.145139,-2.08392 5.005381,-2.08392 h 81.04026 q 2.86024,0 5.00538,2.08392 2.14518,2.08396 2.14518,4.86259 v 55.57198 q 0,2.77855 -2.14518,4.8625 -2.14514,2.08398 -5.00538,2.08398 z m 0,-6.94648 h 81.04026 v -55.57198 h -81.04026 z m 0,0 v -55.57198 z"
       id="path1001"
       style="stroke-width:2.34926" /><text
       xml:space="preserve"
       style="font-size:7.40833px;font-family:Avenir;-inkscape-font-specification:Avenir;text-align:center;text-anchor:middle;fill:#0e562b;fill-opacity:1;stroke:#745638;stroke-width:1;stroke-linecap:round;stroke-linejoin:bevel;stroke-dasharray:none;stroke-opacity:0.466667"
       x="113.80595"
       y="66.41951"
       id="text39759-7"><tspan
         sodipodi:role="line"
         id="tspan39757-1"
         style="font-size:7.40833px;fill:#0e562b;fill-opacity:1;stroke:none;stroke-width:1"
         x="113.80595"
         y="66.41951">brugerinput </tspan><tspan
         sodipodi:role="line"
         style="font-size:7.40833px;fill:#0e562b;fill-opacity:1;stroke:none;stroke-width:1"
         x="113.80595"
         y="75.679924"
         id="tspan69664">(events)</tspan></text><text
       xml:space="preserve"
       style="font-size:7.40833px;font-family:Avenir;-inkscape-font-specification:Avenir;text-align:center;text-anchor:middle;white-space:pre;inline-size:40.8132;display:inline;fill:#b3730b;fill-opacity:1;stroke:#745638;stroke-width:1;stroke-linecap:round;stroke-linejoin:bevel;stroke-dasharray:none;stroke-opacity:0.466667"
       x="109.46082"
       y="147.08382"
       id="text39759-7-4"
       transform="translate(-5.8208328,-10.583329)"><tspan
         x="109.46082"
         y="147.08382"
         id="tspan71256"><tspan
           style="stroke:none"
           id="tspan71254">URL</tspan><tspan
           y="147.08382"
           id="tspan71258"> </tspan></tspan><tspan
         x="109.46082"
         y="156.34423"
         id="tspan71262"><tspan
           style="stroke:none"
           id="tspan71260">parametre</tspan></tspan></text><text
       xml:space="preserve"
       style="font-size:7.40833px;font-family:Avenir;-inkscape-font-specification:Avenir;text-align:end;text-anchor:end;white-space:pre;inline-size:82.47;display:inline;fill:#831675;fill-opacity:1;stroke:#745638;stroke-width:1;stroke-linecap:round;stroke-linejoin:bevel;stroke-dasharray:none;stroke-opacity:0.466667"
       x="80.636528"
       y="227.22981"
       id="text39759-7-4-3"
       transform="translate(2.6458334,-7.9374992)"><tspan
         x="80.636528"
         y="227.22981"
         id="tspan71266"><tspan
           style="stroke:none"
           id="tspan71264">opdaterer
</tspan></tspan><tspan
         x="80.636528"
         y="236.49023"
         id="tspan71270"><tspan
           style="stroke:none"
           id="tspan71268"> komponenter
</tspan></tspan><tspan
         x="80.636528"
         y="245.75063"
         id="tspan71274"><tspan
           style="stroke:none"
           id="tspan71272">gennem
</tspan></tspan><tspan
         x="80.636528"
         y="255.01104"
         id="tspan71282"><tspan
           style="stroke:none"
           id="tspan71276">  attributes og </tspan><tspan
           style="font-weight:800;-inkscape-font-specification:'Avenir Ultra-Bold'"
           id="tspan71278">setters</tspan><tspan
           style="stroke:none"
           id="tspan71280"></tspan><tspan
           y="255.01104"
           id="tspan71284"> </tspan></tspan><tspan
         x="80.636528"
         y="264.43926"
         id="tspan71288"><tspan
           style="stroke:none"
           id="tspan71286">på web components</tspan></tspan></text><path
       d="m 105.71621,231.14999 q -1.17657,0 -2.059,-0.88243 -0.88243,-0.88242 -0.88243,-2.059 V 198.7943 q 0,-1.17657 0.88243,-2.059 0.88243,-0.88243 2.059,-0.88243 h 29.41425 q 1.17657,0 2.059,0.88243 0.88243,0.88243 0.88243,2.059 v 29.41426 q 0,1.17658 -0.88243,2.059 -0.88243,0.88243 -2.059,0.88243 z m 0,-2.94143 h 29.41425 V 198.7943 h -29.41425 z"
       id="path54116"
       style="stroke-width:0.980476" /><path
       d="m 143.78539,211.96647 v -15.48168 h 15.48164 v 15.48168 z m 0,18.29652 v -15.48167 h 15.48164 v 15.48167 z m 18.2965,-18.29652 v -15.48168 h 15.48168 v 15.48168 z m 0,18.29652 v -15.48167 h 15.48168 v 15.48167 z m -15.48165,-21.11137 h 9.85195 v -9.85198 h -9.85195 z m 18.29649,0 h 9.852 v -9.85198 h -9.852 z m 0,18.29653 h 9.852 v -9.85198 h -9.852 z m -18.29649,0 h 9.85195 v -9.85198 h -9.85195 z m 18.29649,-18.29653 z m 0,8.44455 z m -8.44454,0 z m 0,-8.44455 z"
       id="path53991"
       style="stroke-width:0.938282" /><rect
       style="fill:#ea970f;fill-opacity:1;stroke:none;stroke-width:0.357884;stroke-linecap:round;stroke-linejoin:bevel;stroke-dasharray:none;stroke-opacity:0.466667"
       id="rect57622"
       width="75.750313"
       height="5.3392291"
       x="102.84552"
       y="184.43782" /><path
       d="m 45.746337,119.4961 q -0.898635,0 -1.467769,-0.56914 -0.569133,-0.5691 -0.569133,-1.46775 v -3.954 h 2.875624 v 3.11527 H 51.6174 v -11.5025 h 2.875624 v 12.34123 q 0,0.89865 -0.569134,1.46775 -0.569133,0.56914 -1.467767,0.56914 z m 14.378118,0 q -0.898634,0 -1.467767,-0.56914 -0.569134,-0.5691 -0.569134,-1.46775 v -2.7558 h 2.875624 v 1.91707 h 6.230517 v -3.17519 h -7.06924 q -0.838726,0 -1.437811,-0.59908 -0.59909,-0.59908 -0.59909,-1.43781 v -4.25352 q 0,-0.89865 0.569134,-1.46776 0.569133,-0.56914 1.467767,-0.56914 h 7.907955 q 0.89863,0 1.467764,0.56914 0.569133,0.56911 0.569133,1.46776 v 2.7558 h -2.875612 v -1.91707 h -6.230517 v 3.17519 h 7.069232 q 0.838727,0 1.437818,0.59908 0.599079,0.59908 0.599079,1.43781 v 4.25352 q 0,0.89865 -0.569133,1.46775 -0.569134,0.56914 -1.467764,0.56914 z"
       id="path58112"
       style="stroke-width:1.19817" /><path
       d="m 35.266309,131.94032 q -2.044822,0 -3.578439,-1.53361 -1.533616,-1.53362 -1.533616,-3.57844 V 68.891615 q 0,-2.044822 1.533616,-3.578439 1.533617,-1.533616 3.578439,-1.533616 h 30.757533 l 18.658995,18.659004 v 44.389706 q 0,2.04482 -1.533615,3.57844 -1.533615,1.53361 -3.578442,1.53361 z M 63.467813,84.738985 V 68.891615 H 35.266309 V 126.82827 H 79.57078 V 84.738985 Z M 35.266309,68.891615 v 15.84737 -15.84737 57.936655 z"
       id="path57987"
       style="stroke-width:1.70402" /><path
       d="m 179.34131,65.129843 q -3.61362,-0.893628 -5.48074,-3.987599 -1.86713,-3.09396 -0.97348,-6.707578 l 1.96901,-7.962231 q 0.89363,-3.613622 3.98762,-5.480736 3.09396,-1.867113 6.70758,-0.973484 3.61362,0.893628 5.48072,3.987583 1.86713,3.093971 0.97349,6.707589 l -1.969,7.962242 q -0.89365,3.613611 -3.98763,5.480722 -3.09394,1.867128 -6.70757,0.973492 z m 5.00822,-16.309723 5.81856,1.438895 q 0.61342,-2.480549 -0.53255,-4.811229 -1.14597,-2.330698 -3.63506,-3.303705 z m -7.65599,-1.893292 5.81854,1.438895 1.65095,-6.676026 q -2.65571,-0.299277 -4.75587,1.228667 -2.1002,1.527914 -2.71362,4.008464 z m 3.10215,16.365574 q 2.78677,0.689157 5.25051,-0.797605 2.46371,-1.486783 3.15287,-4.273558 l 1.51463,-6.124789 -13.47455,-3.332187 -1.51463,6.124788 q -0.68915,2.786782 0.79762,5.250494 1.48679,2.463714 4.27355,3.152857 z m 3.18073,-12.862052 z m 1.37313,-1.610216 z m -1.83745,-0.454397 z m 0.46435,2.064641 z"
       id="path61331"
       style="stroke:none;stroke-width:0.7;stroke-dasharray:none" /><path
       d="m 124.69561,56.802744 q -1.41791,0 -2.48133,-1.092977 -1.06345,-1.092978 -1.06345,-2.451807 V 27.262869 q 0,-1.417913 1.06345,-2.481349 1.06342,-1.063435 2.48133,-1.063435 h 40.17426 q 1.41792,0 2.48133,1.063435 1.06345,1.063436 1.06345,2.481349 V 53.25796 q 0,1.358829 -1.06345,2.451807 -1.06341,1.092977 -2.48133,1.092977 z m 0,-3.544784 h 40.17426 V 27.262869 h -40.17426 z m 9.45278,-3.840184 h 21.26871 v -3.544785 h -21.26871 z m -5.73073,-7.384969 h 3.54478 v -3.544784 h -3.54478 z m 7.3259,0 h 3.54479 v -3.544784 h -3.54479 z m 7.26678,0 h 3.54477 v -3.544784 h -3.54477 z m 7.32589,0 h 3.54479 v -3.544784 h -3.54479 z m 7.26682,0 h 3.54479 v -3.544784 h -3.54479 z m -29.18539,-7.384969 h 3.54478 v -3.544785 h -3.54478 z m 7.3259,0 h 3.54479 v -3.544785 h -3.54479 z m 7.26678,0 h 3.54477 v -3.544785 h -3.54477 z m 7.32589,0 h 3.54479 v -3.544785 h -3.54479 z m 7.26682,0 h 3.54479 v -3.544785 h -3.54479 z M 124.69561,53.25796 V 27.262869 Z"
       id="path61206"
       style="stroke-width:1.18159" /><path
       style="fill:none;fill-opacity:1;stroke:#168341;stroke-width:2;stroke-linecap:round;stroke-linejoin:bevel;stroke-dasharray:none;stroke-opacity:1;marker-end:url(#Arrow1)"
       d="m 111.03371,41.191934 c 0,0 -21.91207,2.797283 -32.16877,26.574183"
       id="path67045" /><path
       style="fill:none;fill-opacity:1;stroke:#831675;stroke-width:2;stroke-linecap:round;stroke-linejoin:bevel;stroke-dasharray:none;stroke-opacity:1;marker-end:url(#Arrow1-2)"
       d="m 55.500512,137.47018 c 0,0 -3.273741,77.49133 64.331548,76.17093"
       id="path67045-92"
       sodipodi:nodetypes="cc" /><path
       style="fill:none;fill-opacity:1;stroke:#ea970f;stroke-width:2;stroke-linecap:round;stroke-linejoin:bevel;stroke-dasharray:none;stroke-opacity:1;marker-end:url(#Arrow1-8)"
       d="m 143.16159,186.48875 c 0,0 6.04104,-69.34737 -48.282168,-74.40725"
       id="path67045-9"
       sodipodi:nodetypes="cc" /><text
       xml:space="preserve"
       style="font-size:7.40833px;font-family:Avenir;-inkscape-font-specification:Avenir;text-align:center;text-anchor:middle;white-space:pre;inline-size:118.762;display:inline;fill:#6b2307;fill-opacity:1;stroke:none;stroke-width:1;stroke-linecap:round;stroke-linejoin:bevel;stroke-dasharray:none;stroke-opacity:1"
       x="157.66513"
       y="104.92284"
       id="text39759-7-4-0"
       transform="translate(9.5249963,-8.4666629)"><tspan
         x="157.66513"
         y="104.92284"
         id="tspan71290">web component
</tspan><tspan
         x="157.66513"
         y="114.18325"
         id="tspan71292">events
</tspan></text><path
       style="fill:none;fill-opacity:1;stroke:#a1350a;stroke-width:2;stroke-linecap:round;stroke-linejoin:bevel;stroke-dasharray:none;stroke-opacity:1;marker-end:url(#Arrow1-8-2)"
       d="m 169.5232,203.97401 c 0,0 8.23252,-112.70529 -75.928359,-113.103037"
       id="path67045-9-1"
       sodipodi:nodetypes="cc" /><text
       xml:space="preserve"
       transform="matrix(0.26458333,0,0,0.26458333,9.5250003,-11.112498)"
       id="text70008"
       style="font-size:28px;font-family:Avenir;-inkscape-font-specification:Avenir;text-align:center;white-space:pre;shape-inside:url(#rect70010);display:inline;fill:#6b2307;fill-opacity:1;stroke:none;stroke-width:7.55906;stroke-linecap:round;stroke-linejoin:bevel;stroke-dasharray:none;stroke-opacity:1"><tspan
         x="88.46912"
         y="199.0663"
         id="tspan71296"><tspan
           style="font-size:36px;fill:#070200"
           id="tspan71294">controller
</tspan></tspan><tspan
         x="121.13906"
         y="244.0663"
         id="tspan71300"><tspan
           style="font-size:36px;fill:#070200"
           id="tspan71298">script</tspan></tspan></text><text
       xml:space="preserve"
       transform="matrix(0.26458333,0,0,0.26458333,78.333686,219.81725)"
       id="text70008-0"
       style="font-size:36px;font-family:Avenir;-inkscape-font-specification:Avenir;text-align:center;white-space:pre;shape-inside:url(#rect70010-6);display:inline;fill:#000000;fill-opacity:1;stroke:none;stroke-width:7.55906;stroke-linecap:round;stroke-linejoin:bevel;stroke-dasharray:none;stroke-opacity:1"><tspan
         x="96.056049"
         y="199.0663"
         id="tspan71302">Web components</tspan></text></g></svg>
