<?xml version="1.0" encoding="UTF-8" standalone="no"?>
<!-- Created with Inkscape (http://www.inkscape.org/) -->

<svg
   width="100%"
   height="100%"
   viewBox="0 0 301.29832 322.802"
   version="1.1"
   id="svg5"
   xml:space="preserve"
   xmlns="http://www.w3.org/2000/svg"
   xmlns:svg="http://www.w3.org/2000/svg"><defs
     id="defs2"><rect
       x="61.672367"
       y="167.39642"
       width="325.73676"
       height="89.865448"
       id="rect70010" /><marker
       style="overflow:visible"
       id="Arrow1"
       refX="0"
       refY="0"
       orient="auto-start-reverse"
       markerWidth="4.0606604"
       markerHeight="6.7071066"
       viewBox="0 0 4.0606602 6.7071068"
       preserveAspectRatio="xMidYMid"><path
         style="fill:none;stroke:context-stroke;stroke-width:1;stroke-linecap:butt"
         d="M 3,-3 0,0 3,3"
         id="path5057"
         transform="rotate(180,0.125,0)" /></marker><rect
       x="303.27621"
       y="619.54993"
       width="332.65253"
       height="43.65139"
       id="rect2040" /><rect
       x="303.27621"
       y="619.54993"
       width="199.29579"
       height="53.073334"
       id="rect2040-5" /><rect
       x="303.27621"
       y="619.54993"
       width="199.29579"
       height="53.073334"
       id="rect10968" /><rect
       x="303.27621"
       y="619.54993"
       width="78.260048"
       height="61.770512"
       id="rect10968-4" /><rect
       x="303.27621"
       y="619.54993"
       width="87.681992"
       height="61.04575"
       id="rect10968-4-2" /><rect
       x="303.27621"
       y="619.54993"
       width="77.535286"
       height="61.04575"
       id="rect10968-4-2-8" /><rect
       x="303.27621"
       y="619.54993"
       width="105.80112"
       height="60.320984"
       id="rect10968-4-2-8-9" /><rect
       x="303.27621"
       y="619.54993"
       width="87.681992"
       height="61.04575"
       id="rect10968-4-2-4" /><rect
       x="303.27621"
       y="619.54993"
       width="199.29579"
       height="53.073334"
       id="rect2040-0" /><marker
       style="overflow:visible"
       id="Arrow1-8"
       refX="0"
       refY="0"
       orient="auto-start-reverse"
       markerWidth="4.0606604"
       markerHeight="6.7071066"
       viewBox="0 0 4.0606602 6.7071068"
       preserveAspectRatio="xMidYMid"><path
         style="fill:none;stroke:context-stroke;stroke-width:1;stroke-linecap:butt"
         d="M 3,-3 0,0 3,3"
         id="path5057-3"
         transform="rotate(180,0.125,0)" /></marker><marker
       style="overflow:visible"
       id="Arrow1-2"
       refX="0"
       refY="0"
       orient="auto-start-reverse"
       markerWidth="4.0606604"
       markerHeight="6.7071066"
       viewBox="0 0 4.0606602 6.7071068"
       preserveAspectRatio="xMidYMid"><path
         style="fill:none;stroke:context-stroke;stroke-width:1;stroke-linecap:butt"
         d="M 3,-3 0,0 3,3"
         id="path5057-30"
         transform="rotate(180,0.125,0)" /></marker><marker
       style="overflow:visible"
       id="Arrow1-8-2"
       refX="0"
       refY="0"
       orient="auto-start-reverse"
       markerWidth="4.0606604"
       markerHeight="6.7071066"
       viewBox="0 0 4.0606602 6.7071068"
       preserveAspectRatio="xMidYMid"><path
         style="fill:none;stroke:context-stroke;stroke-width:1;stroke-linecap:butt"
         d="M 3,-3 0,0 3,3"
         id="path5057-3-5"
         transform="rotate(180,0.125,0)" /></marker><rect
       x="61.672367"
       y="167.39642"
       width="354.1756"
       height="98.675789"
       id="rect70010-6" /></defs><rect
     style="fill:#ffffff;stroke-width:2.50049;stroke-linecap:round;stroke-linejoin:bevel"
     id="rect83500"
     width="301.29831"
     height="322.802"
     x="0"
     y="0" /><path
     d="m 91.670911,257.75955 q -1.549299,0 -2.562314,-0.98415 -1.012932,-0.9841 -1.012932,-2.48915 0,-1.50506 1.012932,-2.48918 1.013015,-0.98403 2.562314,-0.98403 h 97.724959 q 1.54932,0 2.56233,0.98403 1.01297,0.98412 1.01297,2.48918 0,1.50505 -1.01297,2.48915 -1.01301,0.98415 -2.56233,0.98415 z m 8.342369,-13.89301 q -2.860242,0 -5.005381,-2.08398 -2.145227,-2.08395 -2.145227,-4.8625 v -55.57198 q 0,-2.77863 2.145227,-4.86259 2.145139,-2.08392 5.005381,-2.08392 h 81.04026 q 2.86024,0 5.00538,2.08392 2.14518,2.08396 2.14518,4.86259 v 55.57198 q 0,2.77855 -2.14518,4.8625 -2.14514,2.08398 -5.00538,2.08398 z m 0,-6.94648 h 81.04026 v -55.57198 h -81.04026 z m 0,0 v -55.57198 z"
     id="path1001"
     style="stroke-width:2.34926" /><text
     xml:space="preserve"
     style="font-size:7.40833px;font-family:Avenir;-inkscape-font-specification:Avenir;text-align:start;text-anchor:start;fill:#0e562b;fill-opacity:1;stroke:#745638;stroke-width:1;stroke-linecap:round;stroke-linejoin:bevel;stroke-dasharray:none;stroke-opacity:0.466667"
     x="213.93582"
     y="170.10236"
     id="text39759-7"><tspan
       id="tspan39757-1"
       style="font-size:7.40833px;text-align:start;text-anchor:start;fill:#0e562b;fill-opacity:1;stroke:none;stroke-width:1"
       x="233.27522"
       y="170.10236">brugerinput </tspan><tspan
       style="font-size:7.40833px;text-align:start;text-anchor:start;fill:#0e562b;fill-opacity:1;stroke:none;stroke-width:1"
       x="233.27522"
       y="179.36276"
       id="tspan69664">(events)</tspan></text><text
     xml:space="preserve"
     style="font-size:7.40833px;font-family:Avenir;-inkscape-font-specification:Avenir;text-align:center;text-anchor:middle;white-space:pre;inline-size:40.8132;display:inline;fill:#b3730b;fill-opacity:1;stroke:#745638;stroke-width:1;stroke-linecap:round;stroke-linejoin:bevel;stroke-dasharray:none;stroke-opacity:0.466667"
     x="109.46082"
     y="147.08382"
     id="text39759-7-4"
     transform="translate(-5.820833,-8.583329)"><tspan
       x="109.46082"
       y="147.08382"
       id="tspan1287"><tspan
   style="stroke:none"
   id="tspan1285">URL</tspan><tspan
   y="147.08382"
   id="tspan1289"> </tspan></tspan><tspan
       x="109.46082"
       y="156.34423"
       id="tspan1293"><tspan
         style="stroke:none"
         id="tspan1291">parametre</tspan></tspan></text><text
     xml:space="preserve"
     style="font-size:7.40833px;font-family:Avenir;-inkscape-font-specification:Avenir;text-align:end;text-anchor:end;white-space:pre;inline-size:82.47;display:inline;fill:#831675;fill-opacity:1;stroke:#745638;stroke-width:1;stroke-linecap:round;stroke-linejoin:bevel;stroke-dasharray:none;stroke-opacity:0.466667"
     x="80.636528"
     y="227.22981"
     id="text39759-7-4-3"
     transform="translate(2.6458334,-7.9374992)"><tspan
       x="80.636528"
       y="227.22981"
       id="tspan1297"><tspan
         style="stroke:none"
         id="tspan1295">opdaterer
</tspan></tspan><tspan
       x="80.636528"
       y="236.49023"
       id="tspan1301"><tspan
         style="stroke:none"
         id="tspan1299"> komponenter
</tspan></tspan><tspan
       x="80.636528"
       y="245.75063"
       id="tspan1305"><tspan
         style="stroke:none"
         id="tspan1303">gennem
</tspan></tspan><tspan
       x="80.636528"
       y="255.01104"
       id="tspan1311"><tspan
   style="stroke:none"
   id="tspan1307">  attributes og </tspan><tspan
   style="font-weight:800;-inkscape-font-specification:'Avenir Ultra-Bold';stroke:none"
   id="tspan1309">setters</tspan><tspan
   y="255.01104"
   id="tspan1313"> </tspan></tspan><tspan
       x="80.636528"
       y="264.43926"
       id="tspan1317"><tspan
         style="stroke:none"
         id="tspan1315">på web components</tspan></tspan></text><path
     d="m 107.83289,231.14999 q -1.17657,0 -2.059,-0.88243 -0.88243,-0.88242 -0.88243,-2.059 V 198.7943 q 0,-1.17657 0.88243,-2.059 0.88243,-0.88243 2.059,-0.88243 h 29.41425 q 1.17657,0 2.059,0.88243 0.88243,0.88243 0.88243,2.059 v 29.41426 q 0,1.17658 -0.88243,2.059 -0.88243,0.88243 -2.059,0.88243 z m 0,-2.94143 h 29.41425 V 198.7943 h -29.41425 z"
     id="path54116"
     style="fill:#999999;stroke-width:0.980476" /><path
     d="m 142.72705,211.96647 v -15.48168 h 15.48164 v 15.48168 z m 0,18.29652 v -15.48167 h 15.48164 v 15.48167 z m 18.2965,-18.29652 v -15.48168 h 15.48168 v 15.48168 z m 0,18.29652 v -15.48167 h 15.48168 v 15.48167 z M 145.5419,209.15162 h 9.85195 v -9.85198 h -9.85195 z m 18.29649,0 h 9.852 v -9.85198 h -9.852 z m 0,18.29653 h 9.852 v -9.85198 h -9.852 z m -18.29649,0 h 9.85195 v -9.85198 h -9.85195 z m 18.29649,-18.29653 z m 0,8.44455 z m -8.44454,0 z m 0,-8.44455 z"
     id="path53991"
     style="fill:#999999;stroke-width:0.938282" /><rect
     style="fill:#ea970f;fill-opacity:1;stroke:none;stroke-width:0.357884;stroke-linecap:round;stroke-linejoin:bevel;stroke-dasharray:none;stroke-opacity:0.466667"
     id="rect57622"
     width="75.750313"
     height="5.3392291"
     x="102.84552"
     y="184.43782" /><path
     d="m 45.746337,119.4961 q -0.898635,0 -1.467769,-0.56914 -0.569133,-0.5691 -0.569133,-1.46775 v -3.954 h 2.875624 v 3.11527 H 51.6174 v -11.5025 h 2.875624 v 12.34123 q 0,0.89865 -0.569134,1.46775 -0.569133,0.56914 -1.467767,0.56914 z m 14.378118,0 q -0.898634,0 -1.467767,-0.56914 -0.569134,-0.5691 -0.569134,-1.46775 v -2.7558 h 2.875624 v 1.91707 h 6.230517 v -3.17519 h -7.06924 q -0.838726,0 -1.437811,-0.59908 -0.59909,-0.59908 -0.59909,-1.43781 v -4.25352 q 0,-0.89865 0.569134,-1.46776 0.569133,-0.56914 1.467767,-0.56914 h 7.907955 q 0.89863,0 1.467764,0.56914 0.569133,0.56911 0.569133,1.46776 v 2.7558 h -2.875612 v -1.91707 h -6.230517 v 3.17519 h 7.069232 q 0.838727,0 1.437818,0.59908 0.599079,0.59908 0.599079,1.43781 v 4.25352 q 0,0.89865 -0.569133,1.46775 -0.569134,0.56914 -1.467764,0.56914 z"
     id="path58112"
     style="stroke-width:1.19817" /><path
     d="m 35.266309,131.94032 q -2.044822,0 -3.578439,-1.53361 -1.533616,-1.53362 -1.533616,-3.57844 V 68.891615 q 0,-2.044822 1.533616,-3.578439 1.533617,-1.533616 3.578439,-1.533616 h 30.757533 l 18.658995,18.659004 v 44.389706 q 0,2.04482 -1.533615,3.57844 -1.533615,1.53361 -3.578442,1.53361 z M 63.467813,84.738985 V 68.891615 H 35.266309 V 126.82827 H 79.57078 V 84.738985 Z M 35.266309,68.891615 v 15.84737 -15.84737 57.936655 z"
     id="path57987"
     style="stroke-width:1.70402" /><path
     d="m 259.34131,157.12984 q -3.61362,-0.89362 -5.48074,-3.9876 -1.86713,-3.09396 -0.97348,-6.70757 l 1.96901,-7.96223 q 0.89363,-3.61363 3.98762,-5.48074 3.09396,-1.86711 6.70758,-0.97348 3.61362,0.89362 5.48072,3.98758 1.86713,3.09397 0.97349,6.70759 l -1.969,7.96224 q -0.89365,3.61361 -3.98763,5.48072 -3.09394,1.86713 -6.70757,0.97349 z m 5.00822,-16.30972 5.81856,1.4389 q 0.61342,-2.48055 -0.53255,-4.81123 -1.14597,-2.3307 -3.63506,-3.30371 z m -7.65599,-1.89329 5.81854,1.43889 1.65095,-6.67602 q -2.65571,-0.29928 -4.75587,1.22866 -2.1002,1.52792 -2.71362,4.00847 z m 3.10215,16.36557 q 2.78677,0.68916 5.25051,-0.7976 2.46371,-1.48679 3.15287,-4.27356 l 1.51463,-6.12479 -13.47455,-3.33219 -1.51463,6.12479 q -0.68915,2.78678 0.79762,5.2505 1.48679,2.46371 4.27355,3.15285 z m 3.18073,-12.86205 z m 1.37313,-1.61022 z m -1.83745,-0.45439 z m 0.46435,2.06464 z"
     id="path61331"
     style="stroke:none;stroke-width:0.7;stroke-dasharray:none" /><path
     d="m 204.69561,148.80274 q -1.41791,0 -2.48133,-1.09297 -1.06345,-1.09298 -1.06345,-2.45181 v -25.99509 q 0,-1.41791 1.06345,-2.48135 1.06342,-1.06343 2.48133,-1.06343 h 40.17426 q 1.41792,0 2.48133,1.06343 1.06345,1.06344 1.06345,2.48135 v 25.99509 q 0,1.35883 -1.06345,2.45181 -1.06341,1.09297 -2.48133,1.09297 z m 0,-3.54478 h 40.17426 v -25.99509 h -40.17426 z m 9.45278,-3.84018 h 21.26871 v -3.54479 h -21.26871 z m -5.73073,-7.38497 h 3.54478 v -3.54479 h -3.54478 z m 7.3259,0 h 3.54479 v -3.54479 h -3.54479 z m 7.26678,0 h 3.54477 v -3.54479 h -3.54477 z m 7.32589,0 h 3.54479 v -3.54479 h -3.54479 z m 7.26682,0 h 3.54479 v -3.54479 h -3.54479 z m -29.18539,-7.38497 h 3.54478 v -3.54479 h -3.54478 z m 7.3259,0 h 3.54479 v -3.54479 h -3.54479 z m 7.26678,0 h 3.54477 v -3.54479 h -3.54477 z m 7.32589,0 h 3.54479 v -3.54479 h -3.54479 z m 7.26682,0 h 3.54479 v -3.54479 h -3.54479 z m -32.90744,18.61012 v -25.99509 z"
     id="path61206"
     style="stroke-width:1.18159" /><path
     style="fill:none;fill-opacity:1;stroke:#168341;stroke-width:2;stroke-linecap:round;stroke-linejoin:bevel;stroke-dasharray:none;stroke-opacity:1"
     d="m 225.4462,154.07893 c 0,0 3.03698,65.41448 -97.55787,64.09991"
     id="path67045" /><path
     style="fill:none;fill-opacity:1;stroke:#831675;stroke-width:2;stroke-linecap:round;stroke-linejoin:bevel;stroke-dasharray:none;stroke-opacity:1"
     d="m 55.500512,137.47018 c 0,0 -20.423788,74.51617 63.389918,74.10636"
     id="path67045-92" /><path
     style="fill:none;fill-opacity:1;stroke:#ea970f;stroke-width:2;stroke-linecap:round;stroke-linejoin:bevel;stroke-dasharray:none;stroke-opacity:1"
     d="m 143.16159,186.48875 c 0,0 6.04104,-69.34737 -48.282168,-74.40725"
     id="path67045-9" /><path
     style="fill:none;fill-opacity:1;stroke:#ea970f;stroke-width:2;stroke-linecap:round;stroke-linejoin:bevel;stroke-dasharray:none;stroke-opacity:1"
     d="m 73.385017,137.45321 c 0,0 -9.978473,51.57695 14.233719,49.62199"
     id="path67045-9-10" /><text
     xml:space="preserve"
     style="font-size:7.40833px;font-family:Avenir;-inkscape-font-specification:Avenir;text-align:center;text-anchor:middle;white-space:pre;inline-size:118.762;display:inline;fill:#6b2307;fill-opacity:1;stroke:none;stroke-width:1;stroke-linecap:round;stroke-linejoin:bevel;stroke-dasharray:none;stroke-opacity:1"
     x="157.66513"
     y="104.92284"
     id="text39759-7-4-0"
     transform="translate(-12.475004,-20.466663)"><tspan
       x="157.66513"
       y="104.92284"
       id="tspan1319">web component
</tspan><tspan
       x="157.66513"
       y="114.18325"
       id="tspan1321">events
</tspan></text><path
     style="fill:none;fill-opacity:1;stroke:#a1350a;stroke-width:2;stroke-linecap:round;stroke-linejoin:bevel;stroke-dasharray:none;stroke-opacity:1"
     d="m 169.5232,203.97401 c 0,0 8.23252,-112.70529 -75.928359,-113.103037"
     id="path67045-9-1" /><text
     xml:space="preserve"
     transform="matrix(0.26458333,0,0,0.26458333,-0.57207798,1.0039959)"
     id="text70008"
     style="font-size:28px;font-family:Avenir;-inkscape-font-specification:Avenir;text-align:center;white-space:pre;shape-inside:url(#rect70010);display:inline;fill:#6b2307;fill-opacity:1;stroke:none;stroke-width:7.55906;stroke-linecap:round;stroke-linejoin:bevel;stroke-dasharray:none;stroke-opacity:1"><tspan
       x="99.638363"
       y="199.0663"
       id="tspan1325"><tspan
         style="font-size:36px;fill:#070200"
         id="tspan1323">controller script</tspan></tspan></text><text
     xml:space="preserve"
     transform="matrix(0.26458333,0,0,0.26458333,78.333686,219.81725)"
     id="text70008-0"
     style="font-size:36px;font-family:Avenir;-inkscape-font-specification:Avenir;text-align:center;white-space:pre;shape-inside:url(#rect70010-6);display:inline;fill:#000000;fill-opacity:1;stroke:none;stroke-width:7.55906;stroke-linecap:round;stroke-linejoin:bevel;stroke-dasharray:none;stroke-opacity:1"><tspan
       x="96.056049"
       y="199.0663"
       id="tspan1327">Web components</tspan></text><path
     style="fill:#831675;fill-opacity:1;stroke-width:2;stroke-linecap:round;stroke-linejoin:bevel"
     d="m 120.69259,211.6331 -6.21531,-6.50439 -1.73451,1.58996 5.34806,4.91443 -4.91443,5.20352 1.15634,1.7345 z"
     id="path823" /><path
     style="fill:#a1350a;fill-opacity:1;stroke-width:2;stroke-linecap:round;stroke-linejoin:bevel"
     d="m 90.842311,90.971596 6.339801,6.38311 1.703472,-1.62317 -5.441998,-4.8102 4.812992,-5.297485 -1.189631,-1.711839 z"
     id="path823-7" /><path
     style="fill:#ea970f;fill-opacity:1;stroke-width:2;stroke-linecap:round;stroke-linejoin:bevel"
     d="m 91.496812,112.42568 6.339797,6.38312 1.703464,-1.62317 -5.441984,-4.81021 4.81299,-5.29748 -1.18963,-1.71184 z"
     id="path823-7-9" /><path
     style="fill:#ea970f;fill-opacity:1;stroke-width:2;stroke-linecap:round;stroke-linejoin:bevel"
     d="m 90.54663,187.07731 -6.339799,6.38312 -1.70346,-1.62317 5.441985,-4.81021 -4.812995,-5.29748 1.18963,-1.71184 z"
     id="path823-7-9-1" /><path
     style="fill:#168341;fill-opacity:1;stroke-width:2;stroke-linecap:round;stroke-linejoin:bevel"
     d="m 125.6597,217.75012 5.37372,7.21527 1.91583,-1.36603 -4.70731,-5.53125 5.51358,-4.56385 -0.93568,-1.86283 z"
     id="path823-7-0" /></svg>
