<svg width="80" height="75" viewBox="0 0 80 75" fill="none" xmlns="http://www.w3.org/2000/svg">
<g opacity="0.8">
<mask id="path-1-outside-1_329_38678" maskUnits="userSpaceOnUse" x="16" y="13" width="48" height="48" fill="black">
<rect fill="white" x="16" y="13" width="48" height="48"/>
<path fill-rule="evenodd" clip-rule="evenodd" d="M53.741 51.5321C50.1579 54.9215 45.3214 57 40 57C34.6273 57 29.7493 54.8809 26.1556 51.4336L28.8062 48.783C28.903 48.6862 28.9421 48.5527 28.9233 48.4266C28.9111 48.3411 28.8721 48.2598 28.8062 48.1938C28.6434 48.0311 28.3797 48.0311 28.217 48.1938L25.5664 50.8444C22.1191 47.2507 20 42.3727 20 37C20 31.576 22.1598 26.6558 25.6657 23.0531L28.2178 25.6051C28.3805 25.7679 28.6442 25.7679 28.807 25.6051C28.9697 25.4424 28.9697 25.1787 28.807 25.016L26.259 22.4679C29.8421 19.0785 34.6786 17 40 17C45.3727 17 50.2507 19.1191 53.8444 22.5664L51.1938 25.217C51.097 25.3138 51.0579 25.4473 51.0767 25.5734C51.0889 25.6589 51.1279 25.7402 51.1938 25.8062C51.3566 25.9689 51.6203 25.9689 51.783 25.8062L54.4336 23.1556C57.8809 26.7493 60 31.6273 60 37C60 42.424 57.8402 47.3442 54.3343 50.9469L51.7822 48.3949C51.6195 48.2321 51.3558 48.2321 51.193 48.3949C51.0303 48.5576 51.0303 48.8213 51.193 48.984L53.741 51.5321Z"/>
</mask>
<path fill-rule="evenodd" clip-rule="evenodd" d="M53.741 51.5321C50.1579 54.9215 45.3214 57 40 57C34.6273 57 29.7493 54.8809 26.1556 51.4336L28.8062 48.783C28.903 48.6862 28.9421 48.5527 28.9233 48.4266C28.9111 48.3411 28.8721 48.2598 28.8062 48.1938C28.6434 48.0311 28.3797 48.0311 28.217 48.1938L25.5664 50.8444C22.1191 47.2507 20 42.3727 20 37C20 31.576 22.1598 26.6558 25.6657 23.0531L28.2178 25.6051C28.3805 25.7679 28.6442 25.7679 28.807 25.6051C28.9697 25.4424 28.9697 25.1787 28.807 25.016L26.259 22.4679C29.8421 19.0785 34.6786 17 40 17C45.3727 17 50.2507 19.1191 53.8444 22.5664L51.1938 25.217C51.097 25.3138 51.0579 25.4473 51.0767 25.5734C51.0889 25.6589 51.1279 25.7402 51.1938 25.8062C51.3566 25.9689 51.6203 25.9689 51.783 25.8062L54.4336 23.1556C57.8809 26.7493 60 31.6273 60 37C60 42.424 57.8402 47.3442 54.3343 50.9469L51.7822 48.3949C51.6195 48.2321 51.3558 48.2321 51.193 48.3949C51.0303 48.5576 51.0303 48.8213 51.193 48.984L53.741 51.5321Z" fill="#002226"/>
<path d="M53.741 51.5321L56.4898 54.4379L59.4776 51.6117L56.5695 48.7036L53.741 51.5321ZM26.1556 51.4336L23.3272 48.6052L20.4393 51.493L23.3866 54.3202L26.1556 51.4336ZM28.8062 48.783L31.6346 51.6115L28.8062 48.783ZM28.9233 48.4266L24.9635 48.9923L24.9651 49.003L24.9667 49.0137L28.9233 48.4266ZM28.217 48.1938L25.3885 45.3654L25.3885 45.3654L28.217 48.1938ZM25.5664 50.8444L22.6798 53.6134L25.5069 56.5607L28.3948 53.6728L25.5664 50.8444ZM20 37L16 37L16 37L20 37ZM25.6657 23.0531L28.4941 20.2246L25.6269 17.3574L22.799 20.2634L25.6657 23.0531ZM28.2178 25.6051L31.0462 22.7767L31.0462 22.7767L28.2178 25.6051ZM28.807 25.6051L31.6354 28.4336L31.6354 28.4336L28.807 25.6051ZM28.807 25.016L31.6354 22.1875L31.6354 22.1875L28.807 25.016ZM26.259 22.4679L23.5102 19.5621L20.5224 22.3883L23.4305 25.2964L26.259 22.4679ZM53.8444 22.5664L56.6728 25.3948L59.5607 22.507L56.6134 19.6798L53.8444 22.5664ZM51.1938 25.217L48.3654 22.3885L48.3654 22.3885L51.1938 25.217ZM51.0767 25.5734L55.0365 25.0077L55.0349 24.997L55.0333 24.9863L51.0767 25.5734ZM51.783 25.8062L54.6115 28.6346L54.6115 28.6346L51.783 25.8062ZM54.4336 23.1556L57.3202 20.3866L54.493 17.4393L51.6052 20.3272L54.4336 23.1556ZM54.3343 50.9469L51.5059 53.7754L54.3731 56.6426L57.201 53.7366L54.3343 50.9469ZM51.7822 48.3949L54.6107 45.5664L54.6106 45.5664L51.7822 48.3949ZM51.193 48.984L54.0215 46.1556L54.0215 46.1556L51.193 48.984ZM40 61C46.3839 61 52.1935 58.502 56.4898 54.4379L50.9922 48.6262C48.1222 51.3411 44.259 53 40 53L40 61ZM23.3866 54.3202C27.6949 58.4529 33.554 61 40 61L40 53C35.7005 53 31.8038 51.3088 28.9246 48.5469L23.3866 54.3202ZM25.9777 45.9546L23.3272 48.6052L28.984 54.262L31.6346 51.6115L25.9777 45.9546ZM24.9667 49.0137C24.8086 47.9484 25.1358 46.7965 25.9777 45.9546L31.6346 51.6115C32.6701 50.5759 33.0755 49.1571 32.88 47.8395L24.9667 49.0137ZM25.9777 51.0223C25.4234 50.468 25.0721 49.752 24.9635 48.9923L32.8831 47.8609C32.7502 46.9303 32.3207 46.0516 31.6346 45.3654L25.9777 51.0223ZM31.0454 51.0223C29.646 52.4216 27.3771 52.4216 25.9777 51.0223L31.6346 45.3654C29.9097 43.6406 27.1134 43.6406 25.3885 45.3654L31.0454 51.0223ZM28.3948 53.6728L31.0454 51.0223L25.3885 45.3654L22.738 48.016L28.3948 53.6728ZM16 37C16 43.446 18.5471 49.3051 22.6798 53.6134L28.4531 48.0754C25.6912 45.1962 24 41.2995 24 37L16 37ZM22.799 20.2634C18.5959 24.5826 16 30.4925 16 37L24 37C24 32.6596 25.7237 28.7289 28.5324 25.8427L22.799 20.2634ZM31.0462 22.7767L28.4941 20.2246L22.8373 25.8815L25.3894 28.4336L31.0462 22.7767ZM25.9786 22.7767C27.3779 21.3774 29.6469 21.3774 31.0462 22.7767L25.3893 28.4336C27.1142 30.1584 29.9105 30.1584 31.6354 28.4336L25.9786 22.7767ZM25.9785 27.8444C24.5792 26.445 24.5792 24.1761 25.9785 22.7767L31.6354 28.4336C33.3602 26.7087 33.3603 23.9124 31.6354 22.1875L25.9785 27.8444ZM23.4305 25.2964L25.9785 27.8444L31.6354 22.1875L29.0874 19.6395L23.4305 25.2964ZM40 13C33.6161 13 27.8065 15.498 23.5102 19.5621L29.0078 25.3738C31.8778 22.6589 35.741 21 40 21L40 13ZM56.6134 19.6798C52.3051 15.5471 46.446 13 40 13L40 21C44.2995 21 48.1962 22.6912 51.0754 25.4531L56.6134 19.6798ZM54.0223 28.0454L56.6728 25.3948L51.016 19.738L48.3654 22.3885L54.0223 28.0454ZM55.0333 24.9863C55.1914 26.0516 54.8641 27.2035 54.0223 28.0454L48.3654 22.3885C47.3299 23.4241 46.9245 24.8429 47.12 26.1605L55.0333 24.9863ZM54.0223 22.9777C54.5766 23.532 54.9279 24.248 55.0365 25.0077L47.1169 26.1391C47.2498 27.0697 47.6793 27.9484 48.3654 28.6346L54.0223 22.9777ZM48.9546 22.9777C50.354 21.5784 52.6229 21.5784 54.0223 22.9777L48.3654 28.6346C50.0903 30.3594 52.8866 30.3594 54.6115 28.6346L48.9546 22.9777ZM51.6052 20.3272L48.9546 22.9777L54.6115 28.6346L57.262 25.984L51.6052 20.3272ZM64 37C64 30.554 61.4529 24.6949 57.3202 20.3866L51.5469 25.9246C54.3088 28.8038 56 32.7005 56 37L64 37ZM57.201 53.7366C61.404 49.4174 64 43.5075 64 37L56 37C56 41.3404 54.2763 45.271 51.4676 48.1573L57.201 53.7366ZM48.9538 51.2233L51.5059 53.7754L57.1627 48.1185L54.6107 45.5664L48.9538 51.2233ZM54.0215 51.2233C52.6221 52.6226 50.3531 52.6226 48.9538 51.2233L54.6106 45.5664C52.8858 43.8416 50.0895 43.8416 48.3646 45.5664L54.0215 51.2233ZM54.0215 46.1556C55.4208 47.555 55.4208 49.824 54.0215 51.2233L48.3646 45.5664C46.6397 47.2913 46.6397 50.0876 48.3646 51.8125L54.0215 46.1556ZM56.5695 48.7036L54.0215 46.1556L48.3646 51.8125L50.9126 54.3605L56.5695 48.7036Z" fill="#BEDFE3" fill-opacity="0.5" mask="url(#path-1-outside-1_329_38678)"/>
</g>
<path d="M42.8125 19.8906V27H41.5869L38.3984 21.9072V27H37.1729V19.8906H38.3984L41.5967 24.9932V19.8906H42.8125Z" fill="#3EDDC6"/>
<path opacity="0.4" d="M38.5645 48.8311C38.5645 48.9775 38.5872 49.1077 38.6328 49.2217C38.6751 49.3356 38.7516 49.4398 38.8623 49.5342C38.973 49.6286 39.1292 49.7197 39.3311 49.8076C39.5296 49.8988 39.7835 49.9915 40.0928 50.0859C40.4313 50.1901 40.7438 50.3057 41.0303 50.4326C41.3135 50.5628 41.5609 50.7126 41.7725 50.8818C41.984 51.0544 42.1484 51.2513 42.2656 51.4727C42.3828 51.6973 42.4414 51.9561 42.4414 52.249C42.4414 52.5387 42.3812 52.8024 42.2607 53.04C42.137 53.2777 41.9629 53.4827 41.7383 53.6553C41.5104 53.8311 41.2419 53.9661 40.9326 54.0605C40.6234 54.1582 40.2816 54.207 39.9072 54.207C39.3799 54.207 38.9258 54.1094 38.5449 53.9141C38.1608 53.7188 37.8662 53.4567 37.6611 53.1279C37.4528 52.7992 37.3486 52.4362 37.3486 52.0391L38.5645 52.0391C38.5645 52.2734 38.6149 52.4801 38.7158 52.6592C38.8135 52.8415 38.9632 52.9847 39.165 53.0889C39.3636 53.193 39.6159 53.2451 39.9219 53.2451C40.2116 53.2451 40.4525 53.2012 40.6445 53.1133C40.8366 53.0254 40.9798 52.9066 41.0742 52.7568C41.1686 52.6071 41.2158 52.4378 41.2158 52.249C41.2158 52.1156 41.1849 51.9935 41.123 51.8828C41.0612 51.7754 40.9668 51.6745 40.8398 51.5801C40.7129 51.4889 40.5534 51.4027 40.3613 51.3213C40.1693 51.2399 39.943 51.1618 39.6826 51.0869C39.2887 50.9697 38.9453 50.8395 38.6523 50.6963C38.3594 50.5563 38.1152 50.3968 37.9199 50.2178C37.7246 50.0387 37.5781 49.8353 37.4805 49.6074C37.3828 49.3828 37.334 49.1273 37.334 48.8408C37.334 48.5413 37.3942 48.2712 37.5146 48.0303C37.6351 47.7926 37.8076 47.5892 38.0322 47.4199C38.2536 47.2539 38.5205 47.1253 38.833 47.0342C39.1423 46.9463 39.4873 46.9023 39.8682 46.9023C40.21 46.9023 40.5469 46.9479 40.8789 47.0391C41.2077 47.1302 41.5072 47.2686 41.7773 47.4541C42.0475 47.6429 42.2624 47.8773 42.4219 48.1572C42.5814 48.4404 42.6611 48.7708 42.6611 49.1484L41.4355 49.1484C41.4355 48.9173 41.3965 48.7204 41.3184 48.5576C41.237 48.3949 41.1247 48.2614 40.9814 48.1572C40.8382 48.0563 40.6722 47.9814 40.4834 47.9326C40.2913 47.8838 40.0863 47.8594 39.8682 47.8594C39.5817 47.8594 39.3424 47.9001 39.1504 47.9814C38.9551 48.0628 38.8086 48.1768 38.7109 48.3232C38.6133 48.4697 38.5645 48.639 38.5645 48.8311Z" fill="white"/>
<path opacity="0.4" d="M28.7012 37.0684L22.8906 35.1982L22.8906 33.8457L30 36.3945L30 37.3076L28.7012 37.0684ZM22.8906 38.7969L28.7012 36.9414L30 36.6875L30 37.6055L22.8906 40.1445L22.8906 38.7969Z" fill="white"/>
<path opacity="0.4" d="M57.4072 39.8857L49.541 35.1299L49.541 34.3145L57.4072 39.0801L57.4072 39.8857ZM53.75 39.9736L53.3594 39.9736C52.8223 39.9736 52.3405 39.9036 51.9141 39.7637C51.4876 39.6237 51.1247 39.4235 50.8252 39.1631C50.5257 38.9027 50.2962 38.5918 50.1367 38.2305C49.9805 37.8691 49.9023 37.4687 49.9023 37.0293C49.9023 36.681 49.9528 36.3555 50.0537 36.0527C50.1579 35.7533 50.306 35.4814 50.498 35.2373C50.6934 34.9932 50.931 34.7832 51.2109 34.6074C51.4941 34.4349 51.8148 34.3014 52.1729 34.207C52.5342 34.1159 52.9297 34.0703 53.3594 34.0703L53.75 34.0703C54.2871 34.0703 54.7673 34.1419 55.1904 34.2852C55.6169 34.4284 55.9798 34.6302 56.2793 34.8906C56.582 35.1543 56.8115 35.4652 56.9678 35.8232C57.1273 36.1846 57.207 36.5833 57.207 37.0195C57.207 37.3711 57.1549 37.6982 57.0508 38.001C56.9499 38.3037 56.8018 38.5755 56.6064 38.8164C56.4111 39.0605 56.1735 39.2673 55.8936 39.4365C55.6136 39.609 55.293 39.7409 54.9316 39.832C54.5736 39.9264 54.1797 39.9736 53.75 39.9736ZM53.3594 38.7432L53.7598 38.7432C54.0755 38.7432 54.362 38.7187 54.6191 38.6699C54.8796 38.6211 55.1074 38.5479 55.3027 38.4502C55.5013 38.3558 55.6673 38.2386 55.8008 38.0986C55.9342 37.9587 56.0352 37.7975 56.1035 37.6152C56.1719 37.4362 56.2061 37.2376 56.2061 37.0195C56.2061 36.7493 56.1523 36.5085 56.0449 36.2969C55.9408 36.0853 55.7845 35.9046 55.5762 35.7549C55.3711 35.6084 55.1156 35.4961 54.8096 35.418C54.5068 35.3398 54.1569 35.3008 53.7598 35.3008L53.3594 35.3008C53.0404 35.3008 52.7507 35.3252 52.4902 35.374C52.2331 35.4261 52.0052 35.501 51.8066 35.5986C51.6081 35.6963 51.4404 35.8151 51.3037 35.9551C51.1702 36.0983 51.0693 36.2594 51.001 36.4385C50.9326 36.6175 50.8984 36.8145 50.8984 37.0293C50.8984 37.3027 50.9505 37.5452 51.0547 37.7568C51.1621 37.9684 51.32 38.1475 51.5283 38.2939C51.7399 38.4404 51.9987 38.5511 52.3047 38.626C52.6107 38.7041 52.9622 38.7432 53.3594 38.7432Z" fill="white"/>
<path d="M39.1056 45.2111C39.4741 45.9482 40.5259 45.9482 40.8944 45.2111L44.3292 38.3416C44.7515 37.497 44.7515 36.5029 44.3292 35.6583L40.8944 28.7888C40.5259 28.0518 39.4741 28.0518 39.1056 28.7888L35.6708 35.6583C35.2485 36.5029 35.2485 37.497 35.6708 38.3416L39.1056 45.2111Z" fill="white"/>
<mask id="mask0_329_38678" style="mask-type:alpha" maskUnits="userSpaceOnUse" x="35" y="28" width="10" height="18">
<path d="M39.1056 45.2111C39.4741 45.9482 40.5259 45.9482 40.8944 45.2111L44.3292 38.3416C44.7515 37.497 44.7515 36.5029 44.3292 35.6583L40.8944 28.7888C40.5259 28.0518 39.4741 28.0518 39.1056 28.7888L35.6708 35.6583C35.2485 36.5029 35.2485 37.497 35.6708 38.3416L39.1056 45.2111Z" fill="white"/>
</mask>
<g mask="url(#mask0_329_38678)">
<path d="M40.848 28.3568C40.4563 27.7301 39.5437 27.7301 39.152 28.3568L34.2281 36.235C34.02 36.568 34.2594 37 34.6521 37L40 37L45.3479 37C45.7406 37 45.98 36.568 45.7719 36.235L40.848 28.3568Z" fill="#FF5252"/>
</g>
<circle cx="40" cy="37" r="2.25" transform="rotate(-90 40 37)" fill="#002226" stroke="#002226" stroke-width="0.5"/>
<circle cx="36" cy="36" r="36" transform="matrix(-1 0 0 1 76 1)" stroke="#8FB1B5" stroke-opacity="0.6" stroke-linecap="round" stroke-linejoin="bevel" stroke-dasharray="2 4"/>
<mask id="path-12-outside-2_329_38678" maskUnits="userSpaceOnUse" x="2.48633" y="37" width="75" height="20" fill="black">
<rect fill="white" x="2.48633" y="37" width="75" height="20"/>
<path fill-rule="evenodd" clip-rule="evenodd" d="M76.4863 38C76.3093 44.583 74.3892 50.7313 71.1708 56H69.9926C73.3132 50.7691 75.3031 44.6104 75.4859 38H76.4863ZM4.51358 38H3.5132C3.69027 44.583 5.61036 50.7313 8.82872 56H10.0069C6.68629 50.7691 4.69641 44.6104 4.51358 38Z"/>
</mask>
<path fill-rule="evenodd" clip-rule="evenodd" d="M76.4863 38C76.3093 44.583 74.3892 50.7313 71.1708 56H69.9926C73.3132 50.7691 75.3031 44.6104 75.4859 38H76.4863ZM4.51358 38H3.5132C3.69027 44.583 5.61036 50.7313 8.82872 56H10.0069C6.68629 50.7691 4.69641 44.6104 4.51358 38Z" fill="#3EDDC6"/>
<path d="M76.4863 38V37.5C76.6213 37.5 76.7505 37.5545 76.8446 37.6512C76.9387 37.7479 76.9898 37.8786 76.9861 38.0134L76.4863 38ZM71.1708 56L71.5975 56.2606C71.5067 56.4093 71.345 56.5 71.1708 56.5V56ZM69.9926 56V56.5C69.8102 56.5 69.6423 56.4007 69.5545 56.2408C69.4666 56.081 69.4727 55.886 69.5705 55.732L69.9926 56ZM75.4859 38L74.9861 37.9862C74.9936 37.7155 75.2152 37.5 75.4859 37.5V38ZM4.51358 38V37.5C4.78434 37.5 5.00591 37.7155 5.01339 37.9862L4.51358 38ZM3.5132 38L3.01338 38.0134C3.00975 37.8786 3.0608 37.7479 3.15492 37.6512C3.24905 37.5545 3.37826 37.5 3.5132 37.5V38ZM8.82872 56V56.5C8.6545 56.5 8.49284 56.4093 8.40203 56.2606L8.82872 56ZM10.0069 56L10.429 55.732C10.5268 55.886 10.5329 56.081 10.4451 56.2408C10.3572 56.4007 10.1893 56.5 10.0069 56.5V56ZM76.9861 38.0134C76.8067 44.6863 74.8602 50.9194 71.5975 56.2606L70.7441 55.7394C73.9182 50.5432 75.8119 44.4798 75.9865 37.9866L76.9861 38.0134ZM71.1708 56.5H69.9926V55.5H71.1708V56.5ZM69.5705 55.732C72.8442 50.5751 74.8059 44.5038 74.9861 37.9862L75.9858 38.0138C75.8004 44.7169 73.7823 50.9631 70.4148 56.268L69.5705 55.732ZM76.4863 38.5H75.4859V37.5H76.4863V38.5ZM4.51358 38.5H3.5132V37.5H4.51358V38.5ZM8.40203 56.2606C5.13937 50.9194 3.19286 44.6863 3.01338 38.0134L4.01302 37.9866C4.18768 44.4798 6.08134 50.5432 9.25541 55.7394L8.40203 56.2606ZM10.0069 56.5H8.82872V55.5H10.0069V56.5ZM5.01339 37.9862C5.19366 44.5038 7.15537 50.5751 10.429 55.732L9.58478 56.268C6.21722 50.9631 4.19917 44.7169 4.01377 38.0138L5.01339 37.9862Z" fill="#3EDDC6" mask="url(#path-12-outside-2_329_38678)"/>
<path d="M75.5681 33.8638L72.8618 39.2764C72.6956 39.6088 72.9373 40 73.309 40H75.0625H76H76.9375H78.9149C79.2928 40 79.5341 39.597 79.3557 39.2639L76.4561 33.8513C76.2645 33.4938 75.7495 33.5011 75.5681 33.8638Z" fill="#3EDDC6"/>
<path d="M3.5681 33.8638L0.861804 39.2764C0.695578 39.6088 0.937326 40 1.30902 40H3.0625H4H4.9375H6.91491C7.29278 40 7.53409 39.597 7.35566 39.2639L4.45605 33.8513C4.26454 33.4938 3.74947 33.5011 3.5681 33.8638Z" fill="#3EDDC6"/>
</svg>
