<?xml version="1.0" encoding="UTF-8" standalone="no"?>
<!-- Created with Inkscape (http://www.inkscape.org/) -->

<svg
   width="100%"
   height="100%"
   viewBox="0 0 210 178"
   version="1.1"
   id="svg5"
   xml:space="preserve"
   sodipodi:docname="page-level.svg"
   inkscape:version="1.2.1 (9c6d41e, 2022-07-14)"
   xmlns:inkscape="http://www.inkscape.org/namespaces/inkscape"
   xmlns:sodipodi="http://sodipodi.sourceforge.net/DTD/sodipodi-0.dtd"
   xmlns="http://www.w3.org/2000/svg"
   xmlns:svg="http://www.w3.org/2000/svg"><sodipodi:namedview
     id="namedview83062"
     pagecolor="#ffffff"
     bordercolor="#000000"
     borderopacity="0.25"
     inkscape:showpageshadow="2"
     inkscape:pageopacity="0.0"
     inkscape:pagecheckerboard="0"
     inkscape:deskcolor="#d1d1d1"
     inkscape:document-units="mm"
     showgrid="false"
     inkscape:zoom="0.35079588"
     inkscape:cx="329.2513"
     inkscape:cy="337.80328"
     inkscape:window-width="1728"
     inkscape:window-height="1051"
     inkscape:window-x="410"
     inkscape:window-y="1478"
     inkscape:window-maximized="1"
     inkscape:current-layer="svg5" /><defs
     id="defs2"><marker
       style="overflow:visible"
       id="marker9466"
       refX="0"
       refY="0"
       orient="auto"
       markerWidth="5.4000001"
       markerHeight="5.4000001"
       viewBox="0 0 5.4 5.4"
       preserveAspectRatio="xMidYMid"><path
         transform="scale(0.45)"
         style="fill:context-fill;fill-rule:evenodd;stroke:context-stroke;stroke-width:2"
         d="M 5,0 C 5,2.76 2.76,5 0,5 -2.76,5 -5,2.76 -5,0 c 0,-2.76 2.3,-5 5,-5 2.76,0 5,2.24 5,5 z"
         id="path9464" /></marker><rect
       x="303.27621"
       y="619.54993"
       width="332.65253"
       height="43.65139"
       id="rect2040" /><rect
       x="303.27621"
       y="619.54993"
       width="199.29579"
       height="53.073334"
       id="rect2040-5" /><rect
       x="303.27621"
       y="619.54993"
       width="199.29579"
       height="53.073334"
       id="rect10968" /><rect
       x="303.27621"
       y="619.54993"
       width="78.260048"
       height="61.770512"
       id="rect10968-4" /><rect
       x="303.27621"
       y="619.54993"
       width="87.681992"
       height="61.04575"
       id="rect10968-4-2" /><rect
       x="303.27621"
       y="619.54993"
       width="77.535286"
       height="61.04575"
       id="rect10968-4-2-8" /><rect
       x="303.27621"
       y="619.54993"
       width="105.80112"
       height="60.320984"
       id="rect10968-4-2-8-9" /><rect
       x="303.27621"
       y="619.54993"
       width="87.681992"
       height="61.04575"
       id="rect10968-4-2-4" /><rect
       x="303.27621"
       y="619.54993"
       width="199.29579"
       height="53.073334"
       id="rect2040-0" /><marker
       style="overflow:visible"
       id="marker9466-8"
       refX="0"
       refY="0"
       orient="auto"
       markerWidth="5.4000001"
       markerHeight="5.4000001"
       viewBox="0 0 5.4 5.4"
       preserveAspectRatio="xMidYMid"><path
         transform="scale(0.45)"
         style="fill:context-fill;fill-rule:evenodd;stroke:context-stroke;stroke-width:2"
         d="M 5,0 C 5,2.76 2.76,5 0,5 -2.76,5 -5,2.76 -5,0 c 0,-2.76 2.3,-5 5,-5 2.76,0 5,2.24 5,5 z"
         id="path9464-5" /></marker><marker
       style="overflow:visible"
       id="marker9466-5"
       refX="0"
       refY="0"
       orient="auto"
       markerWidth="5.4000001"
       markerHeight="5.4000001"
       viewBox="0 0 5.4 5.4"
       preserveAspectRatio="xMidYMid"><path
         transform="scale(0.45)"
         style="fill:context-fill;fill-rule:evenodd;stroke:context-stroke;stroke-width:2"
         d="M 5,0 C 5,2.76 2.76,5 0,5 -2.76,5 -5,2.76 -5,0 c 0,-2.76 2.3,-5 5,-5 2.76,0 5,2.24 5,5 z"
         id="path9464-7" /></marker><marker
       style="overflow:visible"
       id="marker9466-8-0"
       refX="0"
       refY="0"
       orient="auto"
       markerWidth="5.4000001"
       markerHeight="5.4000001"
       viewBox="0 0 5.4 5.4"
       preserveAspectRatio="xMidYMid"><path
         transform="scale(0.45)"
         style="fill:context-fill;fill-rule:evenodd;stroke:context-stroke;stroke-width:2"
         d="M 5,0 C 5,2.76 2.76,5 0,5 -2.76,5 -5,2.76 -5,0 c 0,-2.76 2.3,-5 5,-5 2.76,0 5,2.24 5,5 z"
         id="path9464-5-0" /></marker><marker
       style="overflow:visible"
       id="marker9466-6"
       refX="0"
       refY="0"
       orient="auto"
       markerWidth="5.4000001"
       markerHeight="5.4000001"
       viewBox="0 0 5.4 5.4"
       preserveAspectRatio="xMidYMid"><path
         transform="scale(0.45)"
         style="fill:context-fill;fill-rule:evenodd;stroke:context-stroke;stroke-width:2"
         d="M 5,0 C 5,2.76 2.76,5 0,5 -2.76,5 -5,2.76 -5,0 c 0,-2.76 2.3,-5 5,-5 2.76,0 5,2.24 5,5 z"
         id="path9464-4" /></marker><marker
       style="overflow:visible"
       id="marker9466-8-4"
       refX="0"
       refY="0"
       orient="auto"
       markerWidth="5.4000001"
       markerHeight="5.4000001"
       viewBox="0 0 5.4 5.4"
       preserveAspectRatio="xMidYMid"><path
         transform="scale(0.45)"
         style="fill:context-fill;fill-rule:evenodd;stroke:context-stroke;stroke-width:2"
         d="M 5,0 C 5,2.76 2.76,5 0,5 -2.76,5 -5,2.76 -5,0 c 0,-2.76 2.3,-5 5,-5 2.76,0 5,2.24 5,5 z"
         id="path9464-5-8" /></marker><marker
       style="overflow:visible"
       id="marker9466-80"
       refX="0"
       refY="0"
       orient="auto"
       markerWidth="5.4000001"
       markerHeight="5.4000001"
       viewBox="0 0 5.4 5.4"
       preserveAspectRatio="xMidYMid"><path
         transform="scale(0.45)"
         style="fill:context-fill;fill-rule:evenodd;stroke:context-stroke;stroke-width:2"
         d="M 5,0 C 5,2.76 2.76,5 0,5 -2.76,5 -5,2.76 -5,0 c 0,-2.76 2.3,-5 5,-5 2.76,0 5,2.24 5,5 z"
         id="path9464-8" /></marker><marker
       style="overflow:visible"
       id="marker9466-8-5"
       refX="0"
       refY="0"
       orient="auto"
       markerWidth="5.4000001"
       markerHeight="5.4000001"
       viewBox="0 0 5.4 5.4"
       preserveAspectRatio="xMidYMid"><path
         transform="scale(0.45)"
         style="fill:context-fill;fill-rule:evenodd;stroke:context-stroke;stroke-width:2"
         d="M 5,0 C 5,2.76 2.76,5 0,5 -2.76,5 -5,2.76 -5,0 c 0,-2.76 2.3,-5 5,-5 2.76,0 5,2.24 5,5 z"
         id="path9464-5-1" /></marker></defs><rect
     style="fill:#ffffff;stroke-width:2;stroke-linecap:round;stroke-linejoin:bevel"
     id="rect83281"
     width="210.43219"
     height="179.50847"
     x="0"
     y="0" /><g
     id="layer1"><path
       d="m 60.735375,152.1494 q -1.308005,0 -2.16325,-0.83087 -0.855175,-0.83084 -0.855175,-2.10149 0,-1.27065 0.855175,-2.1015 0.855245,-0.83078 2.16325,-0.83078 H 143.2403 q 1.30801,0 2.16326,0.83078 0.8552,0.83085 0.8552,2.1015 0,1.27065 -0.8552,2.10149 -0.85525,0.83087 -2.16326,0.83087 z m 7.043102,-11.72927 q -2.41478,0 -4.225827,-1.75941 -1.811123,-1.75938 -1.811123,-4.1052 V 87.638538 q 0,-2.34588 1.811123,-4.10527 1.811047,-1.759357 4.225827,-1.759357 h 68.418743 q 2.41478,0 4.22583,1.759357 1.81109,1.75939 1.81109,4.10527 v 46.916982 q 0,2.34582 -1.81109,4.1052 -1.81105,1.75941 -4.22583,1.75941 z m 0,-5.86461 H 136.19722 V 87.638538 H 67.778477 Z m 0,0 V 87.638538 Z"
       id="path1001"
       style="stroke-width:1.98338" /><path
       d="m 106.18247,71.142607 q -0.34604,0 -0.56521,-0.21916 -0.21915,-0.21916 -0.21915,-0.5652 v -1.5226 h 1.10734 v 1.19962 h 1.93785 V 65.6059 h 1.10734 v 4.752347 q 0,0.34604 -0.21916,0.5652 -0.21917,0.21916 -0.56522,0.21916 z m 5.53672,0 q -0.34605,0 -0.56522,-0.21916 -0.21915,-0.21916 -0.21915,-0.5652 v -1.06121 h 1.10735 v 0.73823 h 2.39923 v -1.22269 h -2.72221 q -0.32298,0 -0.55367,-0.2307 -0.2307,-0.23069 -0.2307,-0.55367 V 66.39027 q 0,-0.34605 0.21915,-0.56521 0.21917,-0.21916 0.56522,-0.21916 h 3.04519 q 0.34605,0 0.5652,0.21916 0.21917,0.21916 0.21917,0.56521 v 1.061197 h -1.10735 v -0.73823 h -2.39923 v 1.2227 h 2.72221 q 0.32298,0 0.55367,0.23069 0.2307,0.2307 0.2307,0.55367 v 1.63795 q 0,0.34604 -0.21917,0.5652 -0.21915,0.21916 -0.5652,0.21916 z"
       id="path851"
       style="fill:#d77f3a;fill-opacity:1;stroke-width:0.461392" /><path
       d="m 90.586773,124.25807 v -4.94628 h 0.989257 v 1.83423 h 2.225828 v -1.83423 h 0.989255 v 4.94628 h -0.989255 v -2.12279 H 91.57603 v 2.12279 z m 6.512598,0 v -3.95703 H 95.6567 v -0.98925 h 3.874591 v 0.98925 h -1.44266 v 3.95703 z m 3.297519,0 v -4.24556 q 0,-0.30915 0.19579,-0.50495 0.1958,-0.19577 0.50494,-0.19577 h 4.12191 q 0.30915,0 0.50493,0.19577 0.19579,0.1958 0.19579,0.50495 v 4.24556 H 104.931 v -3.95703 h -1.2778 v 3.09142 h -0.98925 v -3.09142 h -1.2778 v 3.95703 z m 6.71871,0 v -4.94628 h 0.98926 v 3.95702 h 2.26705 v 0.98926 z"
       id="path726"
       style="fill:#7f661d;fill-opacity:1;stroke-width:0.41219" /><path
       d="m 87.386038,131.33611 q -1.228445,0 -2.149779,-0.92135 -0.921335,-0.92131 -0.921335,-2.14977 V 93.459022 q 0,-1.228457 0.921335,-2.149767 0.921334,-0.92136 2.149779,-0.92136 h 18.477882 l 11.20957,11.209575 v 26.66752 q 0,1.22846 -0.92134,2.14977 -0.92134,0.92135 -2.14978,0.92135 z M 104.32836,102.97948 V 93.459022 H 87.386038 V 128.26499 H 114.00237 V 102.97948 Z M 87.386038,93.459022 v 9.520458 -9.520458 34.805968 z"
       id="path601"
       style="fill:#7f661d;fill-opacity:1;stroke-width:1.0237" /><path
       d="m 81.083487,74.193514 q -0.692002,0 -1.211001,-0.51901 -0.519001,-0.51899 -0.519001,-1.211 V 52.856826 q 0,-0.69201 0.519001,-1.211 0.518999,-0.51901 1.211001,-0.51901 h 10.408835 l 6.314499,6.314507 v 15.022181 q 0,0.69201 -0.51901,1.211 -0.518997,0.51901 -1.210994,0.51901 z M 90.62732,58.219833 v -5.363007 h -9.543833 v 19.606678 h 14.99333 V 58.219833 Z m -9.543833,-5.363007 v 5.363007 -5.363007 19.606678 z"
       id="path601-7"
       style="fill:#132f35;fill-opacity:1;stroke-width:0.576664" /><path
       d="m 103.28368,74.571564 q -0.692,0 -1.211,-0.51901 -0.519,-0.51899 -0.519,-1.211 V 53.234876 q 0,-0.69201 0.519,-1.211 0.519,-0.51901 1.211,-0.51901 h 10.40884 l 6.3145,6.314507 v 15.022181 q 0,0.69201 -0.519,1.211 -0.51901,0.51901 -1.211,0.51901 z m 9.54384,-15.973681 v -5.363007 h -9.54384 v 19.606678 h 14.99334 V 58.597883 Z m -9.54384,-5.363007 v 5.363007 -5.363007 19.606678 z"
       id="path601-7-0"
       style="fill:#d77f3a;fill-opacity:1;stroke-width:0.576664" /><path
       d="m 157.56723,123.07902 v -4.94628 h 0.98926 v 1.83423 h 2.22582 v -1.83423 h 0.98926 v 4.94628 h -0.98926 v -2.12279 h -2.22582 v 2.12279 z m 6.5126,0 v -3.95703 h -1.44267 v -0.98925 h 3.87459 v 0.98925 h -1.44266 v 3.95703 z m 3.29752,0 v -4.24556 q 0,-0.30915 0.19579,-0.50495 0.1958,-0.19577 0.50493,-0.19577 h 4.12191 q 0.30915,0 0.50493,0.19577 0.19579,0.1958 0.19579,0.50495 v 4.24556 h -0.98925 v -3.95703 h -1.2778 v 3.09142 h -0.98925 v -3.09142 h -1.2778 v 3.95703 z m 6.7187,0 v -4.94628 h 0.98926 v 3.95702 h 2.26705 v 0.98926 z"
       id="path726-7"
       style="fill:#7f661d;fill-opacity:0.481865;stroke-width:0.41219" /><path
       d="m 154.36649,130.15706 q -1.22844,0 -2.14978,-0.92135 -0.92133,-0.92131 -0.92133,-2.14977 V 92.279955 q 0,-1.22845 0.92133,-2.14977 0.92134,-0.92135 2.14978,-0.92135 h 18.47788 l 11.20957,11.209575 v 26.66753 q 0,1.22846 -0.92134,2.14977 -0.92134,0.92135 -2.14978,0.92135 z m 16.94232,-28.35664 v -9.520465 h -16.94232 v 34.805985 h 26.61633 v -25.28552 z m -16.94232,-9.520465 v 9.520465 -9.520465 34.805985 z"
       id="path601-2"
       style="fill:#7f661d;fill-opacity:0.481865;stroke-width:1.0237" /><path
       d="m 27.392187,125.1957 v -4.94628 h 0.98926 v 1.83423 h 2.225817 v -1.83423 h 0.98926 v 4.94628 h -0.98926 v -2.12279 h -2.225817 v 2.12279 z m 6.512597,0 v -3.95703 h -1.44267 v -0.98925 h 3.874587 v 0.98925 h -1.44266 v 3.95703 z m 3.297517,0 v -4.24556 q 0,-0.30915 0.19579,-0.50495 0.1958,-0.19577 0.50493,-0.19577 h 4.121907 q 0.30915,0 0.50493,0.19577 0.19579,0.1958 0.19579,0.50495 v 4.24556 h -0.98925 v -3.95703 h -1.2778 v 3.09142 h -0.989247 v -3.09142 h -1.2778 v 3.95703 z m 6.718697,0 v -4.94628 h 0.98926 v 3.95702 h 2.267047 v 0.98926 z"
       id="path1132"
       style="fill:#7f661d;fill-opacity:0.481865;stroke-width:0.41219" /><path
       d="m 24.191447,132.27374 q -1.228437,0 -2.149777,-0.92135 -0.92133,-0.92131 -0.92133,-2.14977 V 94.396622 q 0,-1.22845 0.92133,-2.149767 0.92134,-0.92135 2.149777,-0.92135 h 18.477871 l 11.209564,11.209585 v 26.66753 q 0,1.22846 -0.92134,2.14977 -0.92134,0.92135 -2.14978,0.92135 z M 41.133758,103.9171 V 94.396622 H 24.191447 V 129.20262 H 50.807762 V 103.9171 Z M 24.191447,94.396622 v 9.520478 -9.520478 34.805998 z"
       id="path1134"
       style="fill:#7f661d;fill-opacity:0.481865;stroke-width:1.0237" /><path
       d="m 87.051987,70.613447 q -0.247631,0 -0.404473,-0.15684 -0.156842,-0.15684 -0.156842,-0.40448 v -0.75943 h 0.792448 v 0.5283 h 1.716978 v -0.875 h -1.948111 q -0.23112,0 -0.396224,-0.16509 -0.165091,-0.16509 -0.165091,-0.39622 v -1.17216 q 0,-0.24764 0.156842,-0.40448 0.156842,-0.156837 0.404473,-0.156837 h 2.179231 q 0.247643,0 0.404485,0.156837 0.156842,0.15684 0.156842,0.40448 v 0.75942 h -0.792447 v -0.52829 H 87.28312 v 0.87499 h 1.948098 q 0.231132,0 0.396224,0.16509 0.165103,0.1651 0.165103,0.39623 v 1.17216 q 0,0.24764 -0.156842,0.40448 -0.156842,0.15684 -0.404485,0.15684 z m 4.292433,0 q -0.247643,0 -0.404486,-0.15684 -0.156829,-0.15684 -0.156829,-0.40448 v -0.75943 h 0.792447 v 0.5283 h 1.716966 v -0.875 H 91.34442 q -0.231133,0 -0.396224,-0.16509 -0.165091,-0.16509 -0.165091,-0.39622 v -1.17216 q 0,-0.24764 0.156829,-0.40448 0.156843,-0.156837 0.404486,-0.156837 h 2.17923 q 0.247643,0 0.404473,0.156837 0.156842,0.15684 0.156842,0.40448 v 0.75942 h -0.792447 v -0.52829 h -1.716966 v 0.87499 h 1.948098 q 0.231133,0 0.396224,0.16509 0.165091,0.1651 0.165091,0.39623 v 1.17216 q 0,0.24764 -0.156842,0.40448 -0.15683,0.15684 -0.404473,0.15684 z m -8.584853,0 q -0.247643,0 -0.404473,-0.15684 -0.156842,-0.15684 -0.156842,-0.40448 v -2.8396 q 0,-0.24764 0.156842,-0.40448 0.15683,-0.156837 0.404473,-0.156837 h 2.179231 q 0.247643,0 0.404485,0.156837 0.15683,0.15684 0.15683,0.40448 v 0.75942 h -0.792448 v -0.52829 H 82.9907 v 2.37734 h 1.716965 v -0.5283 h 0.792448 v 0.75943 q 0,0.24764 -0.15683,0.40448 -0.156842,0.15684 -0.404485,0.15684 z"
       id="path12647"
       style="fill:#132f35;fill-opacity:1;stroke-width:0.330186" /><path
       d="m 179.99413,72.141334 q -0.34604,0 -0.56521,-0.219167 -0.21915,-0.21916 -0.21915,-0.5652 v -1.5226 h 1.10734 v 1.19962 h 1.93785 V 66.60462 h 1.10734 v 4.752347 q 0,0.34604 -0.21916,0.5652 -0.21917,0.219167 -0.56522,0.219167 z m 5.53672,0 q -0.34605,0 -0.56522,-0.219167 -0.21915,-0.21916 -0.21915,-0.5652 v -1.06121 h 1.10735 v 0.73823 h 2.39923 v -1.22269 h -2.72221 q -0.32298,0 -0.55367,-0.2307 -0.2307,-0.23069 -0.2307,-0.55367 v -1.63794 q 0,-0.34605 0.21915,-0.56521 0.21917,-0.219157 0.56522,-0.219157 h 3.04519 q 0.34605,0 0.5652,0.219157 0.21917,0.21916 0.21917,0.56521 v 1.0612 h -1.10735 v -0.73823 h -2.39923 v 1.22269 h 2.72221 q 0.32298,0 0.55367,0.2307 0.2307,0.2307 0.2307,0.55367 v 1.63795 q 0,0.34604 -0.21917,0.5652 -0.21915,0.219167 -0.5652,0.219167 z"
       id="path851-0"
       style="fill:#755738;fill-opacity:0.466321;stroke-width:0.461392" /><path
       d="m 154.89515,75.192234 q -0.692,0 -1.211,-0.51901 -0.519,-0.51899 -0.519,-1.211 V 53.855546 q 0,-0.69201 0.519,-1.211 0.519,-0.51901 1.211,-0.51901 h 10.40884 l 6.3145,6.314507 v 15.022181 q 0,0.69201 -0.51901,1.211 -0.519,0.51901 -1.211,0.51901 z m 9.54383,-15.973681 v -5.363007 h -9.54383 v 19.606678 h 14.99333 V 59.218553 Z m -9.54383,-5.363007 v 5.363007 -5.363007 19.606678 z"
       id="path601-7-9"
       style="fill:#755738;fill-opacity:0.466321;stroke-width:0.576664" /><path
       d="m 177.09534,75.570284 q -0.692,0 -1.211,-0.51901 -0.519,-0.51899 -0.519,-1.211 V 54.233586 q 0,-0.69201 0.519,-1.211 0.519,-0.51901 1.211,-0.51901 h 10.40884 l 6.3145,6.314517 v 15.022181 q 0,0.69201 -0.519,1.211 -0.51901,0.51901 -1.211,0.51901 z m 9.54384,-15.973681 v -5.363017 h -9.54384 v 19.606688 h 14.99334 V 59.596603 Z m -9.54384,-5.363017 v 5.363017 -5.363017 19.606688 z"
       id="path601-7-0-3"
       style="fill:#755738;fill-opacity:0.466321;stroke-width:0.576664" /><path
       d="m 160.86365,71.612167 q -0.24763,0 -0.40447,-0.15684 -0.15684,-0.15684 -0.15684,-0.40448 v -0.75943 h 0.79244 v 0.5283 h 1.71698 v -0.875 h -1.94811 q -0.23112,0 -0.39622,-0.16509 -0.16509,-0.16509 -0.16509,-0.39622 v -1.17216 q 0,-0.24765 0.15684,-0.40448 0.15684,-0.15684 0.40447,-0.15684 h 2.17923 q 0.24764,0 0.40449,0.15684 0.15684,0.15683 0.15684,0.40448 v 0.75942 h -0.79245 v -0.52829 h -1.71698 v 0.87499 h 1.9481 q 0.23113,0 0.39623,0.16509 0.1651,0.1651 0.1651,0.39623 v 1.17216 q 0,0.24764 -0.15684,0.40448 -0.15685,0.15684 -0.40449,0.15684 z m 4.29243,0 q -0.24764,0 -0.40448,-0.15684 -0.15683,-0.15684 -0.15683,-0.40448 v -0.75943 h 0.79245 v 0.5283 h 1.71696 v -0.875 h -1.9481 q -0.23113,0 -0.39622,-0.16509 -0.16509,-0.16509 -0.16509,-0.39622 v -1.17216 q 0,-0.24765 0.15683,-0.40448 0.15684,-0.15684 0.40448,-0.15684 h 2.17923 q 0.24765,0 0.40448,0.15684 0.15684,0.15683 0.15684,0.40448 v 0.75942 h -0.79245 v -0.52829 h -1.71696 v 0.87499 h 1.94809 q 0.23114,0 0.39623,0.16509 0.16509,0.1651 0.16509,0.39623 v 1.17216 q 0,0.24764 -0.15684,0.40448 -0.15683,0.15684 -0.40448,0.15684 z m -8.58485,0 q -0.24764,0 -0.40447,-0.15684 -0.15684,-0.15684 -0.15684,-0.40448 v -2.8396 q 0,-0.24765 0.15684,-0.40448 0.15683,-0.15684 0.40447,-0.15684 h 2.17923 q 0.24765,0 0.40449,0.15684 0.15683,0.15683 0.15683,0.40448 v 0.75942 h -0.79245 v -0.52829 h -1.71697 v 2.37734 h 1.71697 v -0.5283 h 0.79245 v 0.75943 q 0,0.24764 -0.15683,0.40448 -0.15684,0.15684 -0.40449,0.15684 z"
       id="path12647-7"
       style="fill:#755738;fill-opacity:0.466321;stroke-width:0.330186" /><path
       d="m 37.648216,71.612157 q -0.34604,0 -0.56521,-0.21916 -0.21915,-0.21916 -0.21915,-0.5652 v -1.5226 h 1.10734 v 1.19962 h 1.93785 V 66.07545 h 1.10734 v 4.752347 q 0,0.34604 -0.21916,0.5652 -0.21917,0.21916 -0.56522,0.21916 z m 5.536717,0 q -0.34605,0 -0.56522,-0.21916 -0.21915,-0.21916 -0.21915,-0.5652 v -1.06121 h 1.10735 v 0.73823 h 2.39923 v -1.22269 h -2.72221 q -0.32298,0 -0.55367,-0.2307 -0.2307,-0.23069 -0.2307,-0.55367 v -1.63794 q 0,-0.346047 0.21915,-0.565207 0.21917,-0.21916 0.56522,-0.21916 h 3.04519 q 0.34605,0 0.5652,0.21916 0.21917,0.21916 0.21917,0.565207 v 1.0612 h -1.10735 v -0.73823 h -2.39923 v 1.22269 h 2.72221 q 0.32298,0 0.55367,0.2307 0.2307,0.2307 0.2307,0.55367 v 1.63795 q 0,0.34604 -0.21917,0.5652 -0.21915,0.21916 -0.5652,0.21916 z"
       id="path851-1"
       style="fill:#755738;fill-opacity:0.466321;stroke-width:0.461392" /><path
       d="m 12.549251,74.663064 q -0.692,0 -1.211,-0.51901 -0.519001,-0.51899 -0.519001,-1.211 V 53.326376 q 0,-0.69201 0.519001,-1.211 0.519,-0.51901 1.211,-0.51901 h 10.408834 l 6.314497,6.314507 v 15.022181 q 0,0.69201 -0.51901,1.211 -0.519,0.51901 -1.211,0.51901 z M 22.093075,58.689383 V 53.326376 H 12.549251 V 72.933054 H 27.542572 V 58.689383 Z m -9.543824,-5.363007 v 5.363007 -5.363007 19.606678 z"
       id="path601-7-5"
       style="fill:#755738;fill-opacity:0.466321;stroke-width:0.576664" /><path
       d="m 34.749429,75.041114 q -0.692,0 -1.211,-0.51901 -0.519,-0.51899 -0.519,-1.211 V 53.704416 q 0,-0.69201 0.519,-1.211 0.519,-0.51901 1.211,-0.51901 h 10.408834 l 6.314497,6.314517 v 15.022181 q 0,0.69201 -0.519,1.211 -0.51901,0.51901 -1.211,0.51901 z M 44.293263,59.067433 V 53.704416 H 34.749429 V 73.311104 H 49.74276 V 59.067433 Z m -9.543834,-5.363017 v 5.363017 -5.363017 19.606688 z"
       id="path601-7-0-5"
       style="fill:#755738;fill-opacity:0.466321;stroke-width:0.576664" /><path
       d="m 18.517748,71.082997 q -0.24763,0 -0.40447,-0.15684 -0.15684,-0.15684 -0.15684,-0.40448 v -0.75943 h 0.79244 v 0.5283 h 1.71698 v -0.875 h -1.94811 q -0.23112,0 -0.39622,-0.16509 -0.16509,-0.16509 -0.16509,-0.39622 v -1.17216 q 0,-0.24765 0.15684,-0.40448 0.15684,-0.15684 0.40447,-0.15684 h 2.179227 q 0.24764,0 0.40449,0.15684 0.15684,0.15683 0.15684,0.40448 v 0.75942 h -0.792447 v -0.52829 h -1.71698 v 0.87499 h 1.948097 q 0.23113,0 0.39623,0.16509 0.1651,0.1651 0.1651,0.39623 v 1.17216 q 0,0.24764 -0.15684,0.40448 -0.15685,0.15684 -0.40449,0.15684 z m 4.292427,0 q -0.24764,0 -0.40448,-0.15684 -0.15683,-0.15684 -0.15683,-0.40448 v -0.75943 h 0.79245 v 0.5283 h 1.71696 v -0.875 h -1.9481 q -0.23113,0 -0.39622,-0.16509 -0.16509,-0.16509 -0.16509,-0.39622 v -1.17216 q 0,-0.24765 0.15683,-0.40448 0.15684,-0.15684 0.40448,-0.15684 h 2.17923 q 0.24765,0 0.40448,0.15684 0.15684,0.15683 0.15684,0.40448 v 0.75942 h -0.79245 v -0.52829 h -1.71696 v 0.87499 h 1.94809 q 0.23114,0 0.39623,0.16509 0.16509,0.1651 0.16509,0.39623 v 1.17216 q 0,0.24764 -0.15684,0.40448 -0.15683,0.15684 -0.40448,0.15684 z m -8.584844,0 q -0.24764,0 -0.40447,-0.15684 -0.15684,-0.15684 -0.15684,-0.40448 v -2.8396 q 0,-0.24765 0.15684,-0.40448 0.15683,-0.15684 0.40447,-0.15684 h 2.179227 q 0.24765,0 0.40449,0.15684 0.15683,0.15683 0.15683,0.40448 v 0.75942 h -0.79245 v -0.52829 h -1.716967 v 2.37734 h 1.716967 v -0.5283 h 0.79245 v 0.75943 q 0,0.24764 -0.15683,0.40448 -0.15684,0.15684 -0.40449,0.15684 z"
       id="path12647-8"
       style="fill:#755738;fill-opacity:0.466321;stroke-width:0.330186" /><path
       style="fill:none;fill-opacity:0.481865;stroke:#132f35;stroke-width:1;stroke-linecap:round;stroke-linejoin:bevel;stroke-dasharray:none;stroke-opacity:1;marker-end:url(#marker9466)"
       d="M 88.089475,73.587784 95.143352,110.5169"
       id="path25194" /><path
       style="fill:none;fill-opacity:0.481865;stroke:#132f35;stroke-width:0.5;stroke-linecap:round;stroke-linejoin:bevel;stroke-dasharray:none;stroke-opacity:1;marker-end:url(#marker9466-80)"
       d="m 89.743929,33.905791 -3.20283,25.040672"
       id="path25194-1" /><path
       style="fill:none;fill-opacity:0.481865;stroke:#d77f3a;stroke-width:1;stroke-linecap:round;stroke-linejoin:bevel;stroke-dasharray:none;stroke-opacity:1;marker-end:url(#marker9466-8)"
       d="m 110.3358,73.947604 -7.26134,36.721646"
       id="path25194-3" /><path
       style="fill:none;fill-opacity:0.481865;stroke:#d77f3a;stroke-width:0.5;stroke-linecap:round;stroke-linejoin:bevel;stroke-dasharray:none;stroke-opacity:1;marker-end:url(#marker9466-8-5)"
       d="m 109.48415,35.758542 -0.50124,24.133901"
       id="path25194-3-5" /><path
       style="fill:none;fill-opacity:0.481865;stroke:#745638;stroke-width:1;stroke-linecap:round;stroke-linejoin:bevel;stroke-dasharray:none;stroke-opacity:0.466667;marker-end:url(#marker9466-5)"
       d="m 161.45619,74.389324 1.23682,35.067666"
       id="path25194-5" /><path
       style="fill:none;fill-opacity:0.481865;stroke:#745638;stroke-width:1;stroke-linecap:round;stroke-linejoin:bevel;stroke-dasharray:none;stroke-opacity:0.466667;marker-end:url(#marker9466-8-0)"
       d="M 184.63324,74.749144 170.62411,109.60934"
       id="path25194-3-6" /><path
       style="fill:none;fill-opacity:0.481865;stroke:#745638;stroke-width:1;stroke-linecap:round;stroke-linejoin:bevel;stroke-dasharray:none;stroke-opacity:0.466667;marker-end:url(#marker9466-6)"
       d="M 19.94351,74.179164 33.047134,111.57367"
       id="path25194-6" /><path
       style="fill:none;fill-opacity:0.481865;stroke:#745638;stroke-width:1;stroke-linecap:round;stroke-linejoin:bevel;stroke-dasharray:none;stroke-opacity:0.466667;marker-end:url(#marker9466-8-4)"
       d="M 41.724453,74.538984 40.978228,111.72602"
       id="path25194-3-1" /><text
       xml:space="preserve"
       style="font-size:5.29167px;font-family:Avenir;-inkscape-font-specification:Avenir;text-align:center;text-anchor:middle;fill:none;fill-opacity:0.481865;stroke:#745638;stroke-width:1;stroke-linecap:round;stroke-linejoin:bevel;stroke-dasharray:none;stroke-opacity:0.466667"
       x="147.25365"
       y="33.321365"
       id="text39759"><tspan
         id="tspan39757"
         style="font-size:5.29167px;fill:#000000;fill-opacity:1;stroke:none;stroke-width:1"
         x="147.25365"
         y="33.321365">Andre: OpenLayers, proj4</tspan></text><path
       d="m 106.49777,24.082711 q -0.23122,0 -0.40463,-0.178231 -0.17341,-0.178231 -0.17341,-0.399816 v -5.00974 q 0,-0.221585 0.17341,-0.399816 0.17341,-0.178231 0.40463,-0.178231 h 2.69755 l 0.57805,0.578047 h 3.2756 q 0.22158,0 0.39982,0.178231 0.17823,0.178231 0.17823,0.399816 v 4.431693 q 0,0.221585 -0.17823,0.399816 -0.17824,0.178231 -0.39982,0.178231 z m 0,-5.587787 v 5.00974 h 6.5512 v -4.431693 h -3.51646 l -0.57804,-0.578047 z m 0,0 v 5.00974 z"
       id="path36712-7"
       style="fill:#d77f3a;fill-opacity:1;stroke-width:0.192682" /><text
       xml:space="preserve"
       style="font-size:5.29167px;font-family:Avenir;-inkscape-font-specification:Avenir;text-align:center;text-anchor:middle;fill:none;fill-opacity:0.481865;stroke:#745638;stroke-width:1;stroke-linecap:round;stroke-linejoin:bevel;stroke-dasharray:none;stroke-opacity:0.466667"
       x="142.20033"
       y="23.3764"
       id="text39759-9"><tspan
         id="tspan39757-5"
         style="font-size:5.29167px;fill:#000000;fill-opacity:1;stroke:none;stroke-width:1"
         x="142.20033"
         y="23.3764">@dataforsyningen/saul</tspan></text><path
       d="m 86.389418,34.136878 q -0.23122,0 -0.40463,-0.178231 -0.17341,-0.178231 -0.17341,-0.399816 v -5.00974 q 0,-0.221585 0.17341,-0.399816 0.17341,-0.178231 0.40463,-0.178231 h 2.697547 l 0.57805,0.578047 h 3.2756 q 0.22158,0 0.39982,0.178231 0.17823,0.178231 0.17823,0.399816 v 4.431693 q 0,0.221585 -0.17823,0.399816 -0.17824,0.178231 -0.39982,0.178231 z m 0,-5.587787 v 5.00974 h 6.551197 v -4.431693 h -3.51646 l -0.57804,-0.578047 z m 0,0 v 5.00974 z"
       id="path36712-3"
       style="fill:#132f35;fill-opacity:1;stroke-width:0.192682" /><text
       xml:space="preserve"
       style="font-size:5.29167px;font-family:Avenir;-inkscape-font-specification:Avenir;text-align:center;text-anchor:middle;fill:none;fill-opacity:0.481865;stroke:#745638;stroke-width:1;stroke-linecap:round;stroke-linejoin:bevel;stroke-dasharray:none;stroke-opacity:0.466667"
       x="55.417065"
       y="32.901398"
       id="text39759-7"><tspan
         id="tspan39757-1"
         style="font-size:5.29167px;fill:#000000;fill-opacity:1;stroke:none;stroke-width:1"
         x="55.417065"
         y="32.901398">@dataforsyningen/icons</tspan></text><path
       d="m 86.389418,24.611878 q -0.23122,0 -0.40463,-0.178231 -0.17341,-0.178231 -0.17341,-0.399816 v -5.00974 q 0,-0.221585 0.17341,-0.399816 0.17341,-0.178231 0.40463,-0.178231 h 2.697547 l 0.57805,0.578047 h 3.2756 q 0.22158,0 0.39982,0.178231 0.17823,0.178231 0.17823,0.399816 v 4.431693 q 0,0.221585 -0.17823,0.399816 -0.17824,0.178231 -0.39982,0.178231 z m 0,-5.587787 v 5.00974 h 6.551197 v -4.431693 h -3.51646 l -0.57804,-0.578047 z m 0,0 v 5.00974 z"
       id="path36712-6"
       style="fill:#132f35;fill-opacity:1;stroke-width:0.192682" /><text
       xml:space="preserve"
       style="font-size:5.29167px;font-family:Avenir;-inkscape-font-specification:Avenir;text-align:center;text-anchor:middle;fill:none;fill-opacity:0.481865;stroke:#745638;stroke-width:1;stroke-linecap:round;stroke-linejoin:bevel;stroke-dasharray:none;stroke-opacity:0.466667"
       x="58.062889"
       y="23.376392"
       id="text39759-91"><tspan
         id="tspan39757-9"
         style="font-size:5.29167px;fill:#000000;fill-opacity:1;stroke:none;stroke-width:1"
         x="58.062889"
         y="23.376392">@dataforsyningen/css</tspan></text><path
       d="m 105.51587,36.069894 q -0.26171,0 -0.44492,-0.183202 -0.1832,-0.183202 -0.1832,-0.444919 v -5.967154 h 0.62812 v 5.967154 h 7.64215 v 0.628121 z m 1.25625,-1.256243 q -0.26172,0 -0.44492,-0.183202 -0.1832,-0.183202 -0.1832,-0.444919 v -5.44372 q 0,-0.261717 0.1832,-0.444918 0.1832,-0.183203 0.44492,-0.183203 h 2.72186 l 0.62812,0.628121 h 3.34999 q 0.26171,0 0.44491,0.183203 0.18321,0.183202 0.18321,0.444919 v 4.815598 q 0,0.261717 -0.18321,0.444919 -0.1832,0.183202 -0.44491,0.183202 z m 0,-0.628121 h 6.69997 v -4.815598 h -3.61171 l -0.62812,-0.628122 h -2.46014 z m 0,0 v -5.44372 z"
       id="path45188"
       style="fill:#d77f3a;fill-opacity:1;stroke-width:0.209374" /></g></svg>
